<svg width="649" height="239" viewBox="0 0 649 239" fill="none" xmlns="http://www.w3.org/2000/svg">
<g clip-path="url(#clip0_65_493)">
<g opacity="0.7">
<g opacity="0.7">
<path opacity="0.7" d="M563.466 -297.332C551.663 -299.859 540.828 -304.374 531.838 -310.641C529.802 -312.059 527.87 -313.583 525.989 -315.064C520.942 -319.037 516.166 -322.796 509.371 -324.871C490.466 -330.642 473.86 -320.113 461.472 -310.302C455.771 -305.775 450.845 -302.41 445.999 -299.724C428.091 -289.777 412.64 -287.541 397.688 -285.387C390.641 -284.362 383.351 -283.308 375.875 -281.468C350.6 -275.232 329.095 -267.386 310.077 -257.476C294.833 -249.528 283.48 -243.402 273.482 -238.021C263.992 -232.898 255.789 -228.482 246.758 -223.853C240.444 -220.622 232.813 -218.507 223.997 -216.081C213.318 -213.134 201.226 -209.792 189.087 -203.58C186.739 -202.384 184.356 -200.965 182.019 -199.385C171.885 -192.558 164.653 -185.152 157.681 -177.993C146.279 -166.315 135.49 -155.271 113.449 -148.028C98.3352 -143.069 83.1198 -140.957 66.9319 -141.564C59.3383 -141.872 51.6018 -142.622 44.123 -143.349C31.9595 -144.54 20.4567 -145.647 9.31686 -145.041C-23.2321 -143.215 -45.5144 -132.142 -73.6906 -118.128L-75.3676 -117.292C-99.8877 -105.111 -115.606 -98.9988 -132.253 -92.5499C-142.457 -88.5971 -153.022 -84.4854 -165.97 -78.8199C-167.378 -78.1947 -168.816 -77.5417 -170.281 -76.8428L-170.949 -76.5403C-184.373 -70.2979 -197.218 -60.2615 -205.336 -49.6753C-209.776 -43.8801 -212.008 -38.8179 -214.178 -33.9468C-216.045 -29.7199 -217.806 -25.7348 -220.882 -21.4789C-223.306 -18.1383 -226.08 -15.0856 -229.391 -12.1533C-234.928 -7.24757 -242.045 -3.01952 -249.239 0.998768L-248.944 2.05469C-241.58 -2.04944 -234.259 -6.37334 -228.537 -11.4465C-225.165 -14.4346 -222.316 -17.566 -219.853 -20.9754C-216.708 -25.3279 -214.908 -29.3816 -213.015 -33.6544C-210.889 -38.4747 -208.678 -43.4732 -204.32 -49.1488C-196.328 -59.5648 -183.678 -69.4695 -170.441 -75.621L-169.773 -75.9236C-168.321 -76.5995 -166.906 -77.2654 -165.493 -77.8727C-152.581 -83.5283 -142.029 -87.617 -131.829 -91.5877C-115.17 -98.0595 -99.4106 -104.164 -74.8239 -116.383L-73.1469 -117.218C-45.1039 -131.156 -22.9597 -142.172 9.28276 -143.989C20.3281 -144.588 31.7722 -143.485 43.872 -142.314C51.3687 -141.592 59.1281 -140.829 66.7574 -140.531C83.1215 -139.915 98.503 -142.055 113.796 -147.064C136.177 -154.402 147.066 -165.57 158.604 -177.383C165.533 -184.491 172.708 -191.823 182.721 -198.598C185.028 -200.149 187.362 -201.535 189.643 -202.694C201.626 -208.842 213.665 -212.17 224.272 -215.097C232.802 -217.443 240.862 -219.677 247.31 -222.985C256.359 -227.618 264.556 -232.052 274.065 -237.18C284.076 -242.584 295.415 -248.688 310.641 -256.63C329.557 -266.492 350.978 -274.295 376.11 -280.492C383.514 -282.311 390.763 -283.373 397.774 -284.388C412.857 -286.56 428.456 -288.818 446.594 -298.906C451.525 -301.635 456.499 -305.033 462.262 -309.616C474.345 -319.207 490.569 -329.513 508.843 -323.932C515.428 -321.914 520.125 -318.23 525.081 -314.309C526.962 -312.828 528.916 -311.29 530.976 -309.859C540.273 -303.39 551.508 -298.754 563.758 -296.217L563.448 -297.327L563.466 -297.332Z" fill="white" fill-opacity="0.2"/>
</g>
<g opacity="0.7">
<path opacity="0.7" d="M566.533 -286.361C550.835 -287.22 535.243 -291.698 521.924 -299.301C519.99 -300.42 518.1 -301.59 516.296 -302.726C510.776 -306.18 505.558 -309.449 498.595 -311.091C479.945 -315.466 465.894 -305.325 453.09 -294.586C447.665 -290.04 443.117 -286.838 438.333 -284.208C421.333 -274.882 407.367 -273.891 392.582 -272.864C385.371 -272.353 377.914 -271.831 370.092 -270.261C345.118 -265.228 324.309 -257.789 306.504 -247.543C288.233 -237.032 276.544 -228.727 265.257 -220.709C259.879 -216.89 254.806 -213.291 249.289 -209.626C242.836 -205.371 234.135 -202.668 224.897 -199.815C215.431 -196.879 204.718 -193.575 194.509 -187.981C192.266 -186.755 190.024 -185.318 187.85 -183.707C178.512 -176.793 172.327 -169.372 166.343 -162.199C156.43 -150.3 147.081 -139.08 124.667 -131.926C110.211 -127.306 95.5157 -125.474 79.7223 -126.326C71.1545 -126.806 62.4703 -127.909 54.0846 -128.98C43.7624 -130.281 34.0144 -131.53 24.5129 -131.691C-7.90757 -132.236 -31.822 -125.067 -59.8806 -113.325C-87.4709 -101.771 -102.973 -93.7124 -120.911 -84.3557C-128.375 -80.4742 -136.088 -76.4461 -145.251 -71.8773C-146.265 -71.3622 -147.315 -70.8372 -148.359 -70.2942L-149.929 -69.4888C-162.788 -62.8833 -175.154 -53.6177 -183.833 -44.071C-188.319 -39.1312 -191.219 -34.7314 -194.023 -30.474C-196.689 -26.4098 -199.226 -22.5746 -202.943 -18.5444C-205.753 -15.4816 -208.748 -12.7339 -212.059 -10.1488C-218.858 -4.85196 -227.446 -0.366709 -235.75 3.96186C-239.404 5.87113 -243.143 7.82331 -246.678 9.81494L-246.382 10.8709C-242.835 8.85635 -239.096 6.90414 -235.171 4.86111C-226.8 0.494625 -218.158 -4.00563 -211.267 -9.38621C-207.895 -12.0271 -204.856 -14.8257 -201.979 -17.9263C-198.187 -22.0352 -195.642 -25.9112 -192.951 -30.0212C-190.172 -34.2328 -187.303 -38.6047 -182.874 -43.4708C-174.301 -52.9109 -162.08 -62.0778 -149.355 -68.6074L-147.785 -69.4129C-146.74 -69.9558 -145.708 -70.4759 -144.694 -70.9909C-135.513 -75.5647 -127.8 -79.5928 -120.318 -83.4793C-102.394 -92.8132 -86.9272 -100.862 -59.3906 -112.4C-31.506 -124.075 -7.75264 -131.199 24.3972 -130.655C33.8271 -130.475 43.5293 -129.251 53.8157 -127.94C62.2372 -126.879 70.9444 -125.763 79.5709 -125.28C95.5582 -124.424 110.42 -126.283 125.055 -130.954C147.875 -138.241 157.355 -149.614 167.381 -161.66C173.304 -168.776 179.45 -176.129 188.66 -182.949C190.79 -184.51 192.966 -185.909 195.155 -187.12C205.231 -192.638 215.873 -195.922 225.267 -198.838C234.594 -201.716 243.402 -204.449 250.032 -208.83C255.585 -212.505 260.676 -216.109 266.054 -219.928C277.323 -227.942 288.982 -236.218 307.186 -246.692C324.858 -256.862 345.51 -264.238 370.342 -269.231C378.069 -270.793 385.473 -271.301 392.642 -271.819C406.95 -272.829 421.73 -273.874 439.015 -283.357C443.884 -286.03 448.515 -289.274 453.998 -293.894C466.519 -304.4 480.247 -314.316 498.253 -310.107C505.025 -308.527 510.151 -305.31 515.602 -301.895C517.429 -300.746 519.319 -299.576 521.276 -298.445C534.916 -290.661 550.874 -286.112 566.946 -285.299L566.641 -286.391L566.533 -286.361Z" fill="white" fill-opacity="0.2"/>
</g>
<g opacity="0.7">
<path opacity="0.7" d="M568.89 -277.931C567.263 -277.746 565.625 -277.597 563.996 -277.489C547.132 -276.44 529.646 -279.965 511.987 -287.975C510.26 -288.766 508.57 -289.566 506.897 -290.372C500.786 -293.314 495.027 -296.104 487.766 -297.296C468.812 -300.41 456.533 -289.451 444.654 -278.855C439.589 -274.332 435.256 -271.191 430.613 -268.678C414.459 -259.916 401.229 -260.018 387.224 -260.135C379.912 -260.194 372.366 -260.265 364.248 -258.999C339.272 -255.142 319.754 -248.334 302.847 -237.567C286.056 -226.872 275.628 -217.164 265.551 -207.786C260.944 -203.487 256.596 -199.435 251.729 -195.373C245.378 -190.066 236.184 -186.917 226.423 -183.589C217.6 -180.563 208.473 -177.452 199.856 -172.379C197.699 -171.12 195.602 -169.646 193.604 -168.026C184.996 -160.989 179.809 -153.518 174.786 -146.286C166.425 -134.224 158.51 -122.845 135.801 -115.782C122.003 -111.499 107.809 -109.943 92.4054 -111.058C82.4911 -111.798 72.5205 -113.429 62.8765 -114.998C54.7679 -116.32 47.1032 -117.573 39.5786 -118.325C7.78269 -121.398 -16.5779 -118.794 -44.5239 -109.34C-70.2266 -100.63 -84.6813 -90.896 -99.9768 -80.5798C-107.481 -75.5295 -115.241 -70.2916 -124.698 -64.9076C-125.395 -64.5005 -126.114 -64.1064 -126.824 -63.6764C-127.575 -63.2544 -128.32 -62.8144 -129.083 -62.3694C-141.555 -55.2742 -153.419 -46.7665 -162.499 -38.3809C-166.814 -34.4153 -170.153 -30.7608 -173.38 -27.2537C-177.079 -23.2285 -180.573 -19.4345 -185.15 -15.5112C-188.375 -12.7571 -191.568 -10.3015 -194.892 -8.0407C-201.899 -3.28362 -210.273 0.794395 -218.371 4.75654C-223.568 7.29019 -228.489 9.70797 -233.099 12.2705C-237.105 14.5096 -240.821 16.61 -244.328 18.6324L-244.033 19.6883C-240.442 17.623 -236.61 15.4518 -232.484 13.1597C-227.91 10.6072 -223.02 8.21735 -217.823 5.6837C-209.689 1.71154 -201.266 -2.39939 -194.179 -7.21727C-190.806 -9.51102 -187.56 -11.9816 -184.309 -14.7815C-179.671 -18.7606 -176.146 -22.5825 -172.434 -26.6306C-169.225 -30.1327 -165.893 -33.7465 -161.628 -37.6791C-152.621 -45.986 -140.837 -54.4329 -128.468 -61.4801C-127.7 -61.9072 -126.954 -62.3472 -126.209 -62.7872C-125.494 -63.1992 -124.797 -63.6063 -124.096 -63.9955C-114.585 -69.3945 -106.807 -74.6373 -99.2899 -79.7106C-84.0739 -89.9659 -69.7037 -99.6567 -44.175 -108.299C-16.4617 -117.688 7.73284 -120.265 39.3118 -117.208C46.7956 -116.464 54.4374 -115.224 62.5281 -113.897C72.195 -112.316 82.1885 -110.672 92.1794 -109.934C107.759 -108.81 122.137 -110.398 136.114 -114.731C159.306 -121.929 167.338 -133.514 175.825 -145.747C180.791 -152.905 185.939 -160.307 194.388 -167.223C196.32 -168.805 198.355 -170.223 200.463 -171.449C208.965 -176.451 218.021 -179.542 226.777 -182.531C236.658 -185.911 245.977 -189.095 252.532 -194.575C257.411 -198.66 261.777 -202.717 266.402 -207.02C276.448 -216.37 286.81 -226.04 303.508 -236.652C320.233 -247.31 339.56 -254.045 364.333 -257.865C372.344 -259.101 379.832 -259.033 387.085 -258.977C401.284 -258.857 414.707 -258.75 431.195 -267.702C435.94 -270.263 440.352 -273.465 445.492 -278.067C457.648 -288.914 469.139 -299.17 487.404 -296.172C494.467 -295.001 500.157 -292.251 506.199 -289.348C507.872 -288.542 509.567 -287.723 511.312 -286.937C529.155 -278.824 546.863 -275.265 563.951 -276.338C565.675 -276.453 567.425 -276.615 569.147 -276.807L568.836 -277.916L568.89 -277.931Z" fill="white" fill-opacity="0.2"/>
</g>
<g opacity="0.7">
<path opacity="0.7" d="M570.581 -271.882C564.896 -270.543 559.099 -269.328 553.333 -268.758C533.758 -266.777 515.64 -271.939 502.044 -276.666C500.679 -277.133 499.331 -277.605 498.001 -278.083C491.124 -280.521 484.635 -282.817 476.957 -283.564C459.047 -285.291 449.24 -275.776 438.84 -265.691C437.975 -264.85 437.11 -264.01 436.227 -263.165C431.485 -258.656 427.38 -255.598 422.919 -253.193C407.544 -244.958 395.025 -246.108 381.756 -247.318C374.41 -247.985 366.806 -248.676 358.401 -247.812C333.783 -245.232 314.979 -238.837 299.206 -227.673C284.372 -217.158 275.428 -206.283 266.795 -195.745C262.65 -190.689 258.737 -185.909 254.209 -181.189C248.122 -174.798 238.62 -171.234 228.554 -167.475C220.677 -164.52 212.531 -161.49 205.223 -156.841C203.157 -155.531 201.183 -154.033 199.397 -152.415C191.5 -145.248 187.268 -137.677 183.19 -130.382C176.388 -118.195 169.96 -106.673 146.981 -99.7464C133.792 -95.7696 120.149 -94.5215 105.158 -95.8874C93.2672 -97.0009 81.4507 -99.5052 70.0244 -101.926C64.7307 -103.051 59.7226 -104.12 54.7367 -105.042C24.033 -110.698 -0.699417 -112.736 -29.0747 -105.44C-54.1414 -99.0101 -67.339 -87.6789 -81.3215 -75.7038C-88.1895 -69.8279 -95.2732 -63.7566 -104.04 -58.0445L-104.939 -57.465C-105.985 -56.7868 -107.043 -56.0856 -108.129 -55.4153C-121.563 -46.9317 -132.336 -39.5589 -141.044 -32.879C-144.524 -30.2081 -147.656 -27.673 -150.695 -25.2216C-156.063 -20.8842 -161.15 -16.78 -167.254 -12.6611C-170.937 -10.1649 -174.24 -8.10306 -177.626 -6.13357C-184.786 -1.99 -192.833 1.66864 -200.623 5.21644C-205.811 7.574 -210.723 9.8157 -215.406 12.1863C-224.426 16.7151 -232.196 20.8169 -239.147 24.6706C-240.133 25.2165 -241.137 25.7673 -242.118 26.331L-241.823 27.387C-240.721 26.7703 -239.638 26.1587 -238.531 25.5599C-231.598 21.7112 -223.842 17.6322 -214.84 13.1085C-210.192 10.7479 -205.293 8.52907 -200.123 6.17652C-192.298 2.61871 -184.201 -1.07286 -176.993 -5.24934C-173.571 -7.22883 -170.238 -9.3186 -166.542 -11.8377C-160.375 -16.0124 -155.289 -20.1166 -149.89 -24.4819C-146.869 -26.9283 -143.732 -29.4454 -140.27 -32.1114C-131.592 -38.7634 -120.851 -46.1083 -107.453 -54.5818C-106.353 -55.2751 -105.295 -55.9762 -104.249 -56.6544L-103.35 -57.2339C-94.5168 -62.9839 -87.3844 -69.0881 -80.4856 -74.992C-66.6263 -86.8555 -53.5161 -98.085 -28.8124 -104.432C-0.692718 -111.677 23.8686 -109.629 54.3862 -104.018C59.3542 -103.091 64.3573 -102.039 69.651 -100.914C81.1181 -98.486 92.9804 -95.9559 104.93 -94.8395C120.12 -93.4521 134.019 -94.7523 147.297 -98.7542C170.825 -105.854 177.37 -117.582 184.295 -130.016C188.335 -137.243 192.498 -144.716 200.259 -151.749C202.001 -153.316 203.891 -154.771 205.895 -156.026C213.074 -160.58 221.144 -163.608 228.955 -166.526C239.194 -170.353 248.857 -173.962 255.15 -180.584C259.709 -185.332 263.635 -190.134 267.797 -195.196C276.374 -205.659 285.257 -216.479 299.95 -226.878C315.51 -237.904 334.086 -244.217 358.444 -246.763C366.695 -247.623 374.223 -246.929 381.51 -246.266C394.996 -245.038 407.732 -243.872 423.494 -252.311C428.075 -254.769 432.273 -257.911 437.111 -262.486C437.994 -263.331 438.859 -264.172 439.725 -265.012C449.865 -274.851 459.449 -284.13 476.698 -282.489C484.213 -281.772 490.62 -279.492 497.428 -277.093C498.776 -276.621 500.124 -276.149 501.495 -275.663C515.218 -270.894 533.504 -265.683 553.363 -267.685C559.236 -268.285 565.11 -269.503 570.867 -270.862L570.581 -271.882Z" fill="white" fill-opacity="0.2"/>
</g>
<g opacity="0.7">
<path opacity="0.7" d="M571.837 -267.39C569.053 -266.65 566.271 -265.834 563.555 -265.055C556.737 -263.072 549.71 -261.01 542.675 -260.008C525.799 -257.625 509.8 -261.005 492.13 -265.327L490.827 -265.638C482.605 -267.642 474.842 -269.524 466.186 -269.767C449.045 -270.261 440.791 -261.335 432.06 -251.909C430.68 -250.423 429.288 -248.914 427.849 -247.432C423.499 -242.974 419.609 -239.976 415.253 -237.677C400.621 -229.959 388.774 -232.088 376.216 -234.346C368.861 -235.667 361.26 -237.034 352.623 -236.588C328.37 -235.325 310.245 -229.332 295.621 -217.717C282.7 -207.467 275.274 -195.511 268.085 -183.95C264.571 -178.297 260.94 -172.439 256.74 -166.961C251.047 -159.504 241.379 -155.566 231.159 -151.396C224.109 -148.518 216.813 -145.552 210.6 -141.268C208.608 -139.901 206.797 -138.372 205.182 -136.762C197.948 -129.433 194.688 -121.768 191.533 -114.345C186.29 -102.035 181.363 -90.3914 158.158 -83.6527C145.673 -79.9884 132.532 -79.0158 117.908 -80.6578C102.834 -82.3866 88.1447 -86.5383 73.937 -90.5545L69.874 -91.6955C42.3555 -99.4191 16.3689 -106.703 -13.6464 -101.475C-38.2183 -97.2102 -50.2253 -84.2437 -62.9463 -70.518C-69.1038 -63.8953 -75.4439 -57.0285 -83.4152 -51.0949C-84.6434 -50.1727 -85.9123 -49.2583 -87.1992 -48.3389C-97.1963 -41.2987 -108.593 -34.1566 -119.608 -27.237C-129.675 -20.9298 -138.852 -15.2379 -149.377 -9.67097C-153.346 -7.57713 -156.944 -5.74157 -160.38 -4.08634C-167.602 -0.581301 -175.287 2.64799 -182.732 5.77142C-187.983 7.97292 -192.935 10.0714 -197.75 12.2473C-207.264 16.5282 -214.747 20.0675 -221.289 23.3824C-227.244 26.3789 -233.786 29.6938 -240.147 33.5177L-239.847 34.5915C-233.424 30.7118 -226.785 27.3311 -220.745 24.2917C-214.203 20.9768 -206.738 17.4425 -197.26 13.1716C-192.463 11.0007 -187.506 8.92011 -182.272 6.72362C-174.828 3.60018 -167.13 0.34798 -159.854 -3.17208C-156.405 -4.8502 -152.785 -6.67286 -148.803 -8.78961C-138.247 -14.3844 -129.029 -20.0684 -118.931 -26.4035C-107.898 -33.3281 -96.4886 -40.4932 -86.4557 -47.5434C-85.1509 -48.4678 -83.887 -49.4 -82.6409 -50.3273C-74.5772 -56.3446 -68.1655 -63.2314 -61.9872 -69.9179C-49.428 -83.4632 -37.5651 -96.2544 -13.4915 -100.438C16.1915 -105.611 42.0329 -98.3641 69.4061 -90.677L73.4512 -89.531C87.7047 -85.489 102.435 -81.3294 117.626 -79.5949C132.432 -77.9263 145.744 -78.9082 158.443 -82.6326C182.287 -89.5693 187.339 -101.459 192.696 -114.052C195.799 -121.384 199.025 -128.963 206.097 -136.111C207.651 -137.665 209.4 -139.138 211.308 -140.462C217.392 -144.653 224.599 -147.594 231.577 -150.452C241.99 -154.695 251.814 -158.696 257.732 -166.448C261.959 -171.971 265.607 -177.835 269.13 -183.528C276.249 -194.993 283.619 -206.875 296.368 -216.981C310.758 -228.394 328.602 -234.29 352.531 -235.539C360.997 -235.976 368.515 -234.625 375.789 -233.32C388.592 -231.014 400.684 -228.838 415.769 -236.799C420.258 -239.173 424.241 -242.255 428.701 -246.802C430.139 -248.284 431.55 -249.798 432.929 -251.283C441.437 -260.474 449.468 -269.164 465.963 -268.701C474.483 -268.459 482.165 -266.593 490.323 -264.609L491.626 -264.298C509.442 -259.94 525.581 -256.541 542.718 -258.959C549.859 -259.991 556.964 -262.054 563.799 -264.043C566.51 -264.839 569.279 -265.633 572.064 -266.373L571.784 -267.375L571.837 -267.39Z" fill="white" fill-opacity="0.2"/>
</g>
<g opacity="0.7">
<path opacity="0.7" d="M573.068 -262.987C565.686 -261.85 558.503 -259.378 551.517 -256.962C545.183 -254.766 538.635 -252.511 532.018 -251.259C517.401 -248.523 502.772 -250.801 488.605 -253.015C477.808 -254.704 466.631 -256.441 455.364 -256.012C438.733 -255.376 431.772 -246.792 424.416 -237.692C419.798 -231.982 415.006 -226.069 407.554 -222.211C393.64 -214.963 382.411 -218.056 370.525 -221.293C363.209 -223.3 355.644 -225.372 346.795 -225.406C322.549 -225.497 305.635 -220.073 291.98 -207.823C280.917 -197.899 275.018 -185.039 269.31 -172.599C266.277 -165.981 263.134 -159.14 259.255 -152.787C254.021 -144.242 243.908 -139.756 234.121 -135.417C225.585 -131.642 216.778 -127.732 210.998 -121.138C204.427 -113.647 202.113 -105.841 199.877 -98.3077C196.045 -85.3692 192.741 -74.1994 169.366 -67.5867L169.133 -67.5217C140.494 -59.5143 110.572 -68.515 85.06 -78.3819C83.1546 -79.1227 81.2491 -79.8635 79.3208 -80.6171C54.8636 -90.1615 29.5811 -100.035 1.8435 -97.5667C-22.3308 -95.4002 -33.1422 -80.7806 -44.561 -65.2964C-49.9771 -57.9547 -55.5759 -50.3689 -62.734 -44.2189C-86.4198 -23.8771 -125.923 -8.68374 -160.754 4.72095C-176.175 10.6534 -190.744 16.2511 -203.379 22.0027C-216.82 28.1148 -228.899 34.0584 -237.646 42.2543L-237.311 43.4534C-228.662 35.1114 -216.499 29.1249 -202.889 22.927C-190.29 17.1854 -175.739 11.5927 -160.354 5.67024C-125.397 -7.76948 -85.7737 -23.0158 -61.8981 -43.5071C-54.6297 -49.7459 -48.9923 -57.4003 -43.5325 -64.7928C-32.2913 -80.0151 -21.6497 -94.4136 1.86813 -96.5123C29.2814 -98.9668 54.4135 -89.1481 78.7433 -79.6453C80.6538 -78.8866 82.5771 -78.1508 84.4826 -77.41C110.191 -67.4629 140.385 -58.384 169.436 -66.5065L169.669 -66.5716C193.778 -73.3894 197.329 -85.4003 201.104 -98.1298C203.311 -105.558 205.584 -113.237 211.993 -120.548C217.585 -126.916 226.254 -130.767 234.634 -134.48C244.608 -138.909 254.931 -143.474 260.358 -152.363C264.28 -158.766 267.437 -165.63 270.477 -172.288C276.139 -184.619 281.992 -197.37 292.852 -207.121C306.23 -219.12 322.832 -224.418 346.689 -224.335C355.344 -224.304 362.823 -222.266 370.057 -220.275C382.216 -216.959 393.694 -213.801 408.116 -221.306C415.834 -225.317 420.696 -231.326 425.401 -237.138C432.557 -245.989 439.334 -254.328 455.294 -254.951C466.425 -255.381 477.526 -253.641 488.26 -251.972C502.526 -249.748 517.295 -247.452 532.15 -250.235C538.879 -251.499 545.481 -253.769 551.869 -255.98C558.855 -258.396 566.038 -260.867 573.336 -261.962L573.051 -262.982L573.068 -262.987Z" fill="white" fill-opacity="0.2"/>
</g>
<g opacity="0.7">
<path opacity="0.7" d="M577.657 -246.576C569.925 -245.861 562.383 -243.984 555.06 -242.149C548.436 -240.509 542.193 -238.957 535.828 -238.181C522.183 -236.527 509.094 -239.235 495.229 -242.093C484.086 -244.399 472.557 -246.772 460.718 -246.665C443.51 -246.504 435.642 -237.647 427.319 -228.277C422.727 -223.095 417.968 -217.751 411.446 -213.882C408.761 -212.302 406.306 -211.075 403.95 -210.185C395.007 -206.758 387.753 -207.991 379.362 -209.427C377.518 -209.741 375.615 -210.058 373.646 -210.338C368.58 -211.063 362.446 -211.741 355.494 -211.341C341.397 -210.545 330.675 -208.376 321.745 -204.49C314.335 -201.242 307.973 -196.8 302.328 -190.899C297.88 -186.24 294.131 -180.735 290.51 -173.529C288.305 -169.13 286.343 -164.413 284.412 -159.86C280.841 -151.374 277.155 -142.606 271.78 -134.91C265.731 -126.175 254.905 -122.376 244.449 -118.701C236.227 -115.804 228.461 -113.073 222.964 -108.159C216.297 -102.185 213.421 -95.6305 210.624 -89.2721C205.813 -78.3175 201.256 -67.9741 178.506 -60.4364C176.227 -59.6835 173.856 -58.982 171.465 -58.3522C144.424 -51.2548 117.099 -58.0099 93.9326 -65.561C90.9383 -66.5376 87.9162 -67.5451 84.8841 -68.5884L80.1547 -70.1798C58.9667 -77.2807 34.9657 -85.3317 8.71495 -82.5847C-14.294 -80.1845 -25.0283 -66.5319 -36.3773 -52.1092C-41.7008 -45.3337 -47.212 -38.332 -54.115 -32.5814C-77.666 -13.0684 -116.002 1.60566 -149.835 14.5769C-163.971 19.9958 -177.309 25.0951 -189.088 30.3179C-202.836 36.4385 -219.951 44.0411 -229.174 56.7501C-229.704 57.4772 -230.193 58.2122 -230.647 58.9371C-231.234 59.8732 -231.74 60.8251 -232.246 61.7769L-231.781 63.4413C-231.124 62.0615 -230.404 60.7024 -229.575 59.3899C-229.121 58.6649 -228.64 57.9707 -228.14 57.2715C-219.126 44.8524 -202.203 37.3227 -188.611 31.2651C-176.881 26.0752 -163.548 20.958 -149.429 15.5441C-115.507 2.54785 -77.0506 -12.1792 -53.3099 -31.8417C-46.3095 -37.6581 -40.7596 -44.7285 -35.3924 -51.5548C-24.2132 -65.7564 -13.6665 -79.1829 8.72668 -81.5074C34.676 -84.228 58.5496 -76.2186 79.5923 -69.1542L84.3216 -67.5628C87.3667 -66.5424 90.3759 -65.5121 93.3881 -64.5404C116.746 -56.927 144.315 -50.1245 171.715 -57.3221C174.141 -57.9619 176.53 -58.6683 178.845 -59.4313C202.175 -67.1699 207.051 -78.239 211.774 -88.9568C214.511 -95.1827 217.341 -101.628 223.823 -107.434C229.117 -112.175 236.74 -114.866 244.824 -117.706C255.507 -121.464 266.543 -125.341 272.827 -134.411C278.253 -142.199 281.982 -151.018 285.575 -159.568C287.492 -164.098 289.46 -168.797 291.634 -173.167C295.19 -180.259 298.882 -185.691 303.244 -190.248C308.771 -196.02 314.987 -200.363 322.209 -203.52C330.97 -207.321 341.526 -209.462 355.435 -210.243C362.269 -210.649 368.303 -209.982 373.31 -209.26C375.262 -208.976 377.147 -208.653 378.991 -208.339C387.581 -206.882 395.016 -205.622 404.329 -209.172C406.77 -210.105 409.297 -211.352 412.049 -212.97C418.753 -216.948 423.586 -222.371 428.234 -227.626C436.351 -236.765 443.996 -245.386 460.569 -245.543C472.255 -245.645 483.72 -243.293 494.799 -241.008C508.151 -238.257 521.957 -235.402 535.845 -237.085C542.304 -237.869 548.887 -239.516 555.261 -241.086C562.624 -242.913 570.202 -244.8 577.921 -245.492L577.621 -246.566L577.657 -246.576Z" fill="white" fill-opacity="0.2"/>
</g>
<g opacity="0.7">
<path opacity="0.7" d="M582.281 -230.039C574.38 -229.721 566.66 -228.547 559.161 -227.415C552.348 -226.378 545.922 -225.411 539.645 -225.084C526.932 -224.443 514.754 -227.619 501.868 -230.982C490.399 -233.969 478.535 -237.058 466.077 -237.299C448.07 -237.648 439.132 -228.338 429.673 -218.476C425.325 -213.942 420.828 -209.25 415.356 -205.559C412.611 -203.711 410.415 -202.383 408.41 -201.34C400.527 -197.303 394.707 -197.547 387.348 -197.844C385.592 -197.913 383.772 -198.002 381.819 -198.015C376.844 -198.072 370.977 -198.071 364.217 -197.262C353.448 -195.949 341.067 -193.915 330.723 -188.669C323.746 -185.117 317.849 -180.323 312.689 -173.998C308.83 -169.234 305.608 -163.567 302.536 -156.128C301.213 -152.921 299.986 -149.646 298.711 -146.202C294.966 -136.124 291.105 -125.705 284.331 -117.077C277.279 -108.062 265.587 -105.083 254.276 -102.19C246.946 -100.315 240.027 -98.5539 234.979 -95.2128C227.972 -90.591 224.595 -85.3438 221.038 -79.776C215.309 -70.861 209.382 -61.6204 187.69 -53.3365C185.476 -52.4862 183.141 -51.6595 180.764 -50.8407C153.248 -41.5072 125.947 -46.5902 102.872 -52.7776C99.1374 -53.7789 95.4416 -54.8488 91.5368 -55.9761L86.6048 -57.3951C64.1115 -63.9188 40.8458 -70.651 15.6352 -67.6353C-6.18257 -65.0471 -16.8091 -52.3894 -28.0832 -39.0104C-33.3449 -32.7731 -38.7763 -26.3147 -45.4473 -20.9763C-68.902 -2.22351 -106.178 11.9613 -139.072 24.4962C-151.839 29.3587 -163.893 33.9444 -174.713 38.5907C-187.881 44.2984 -204.285 51.4123 -213.505 62.8858C-214.037 63.5363 -214.524 64.2126 -214.997 64.866C-220.665 72.8955 -222.585 81.7681 -224.176 90.4332L-223.425 93.1177C-223.394 92.9546 -223.362 92.7913 -223.344 92.651C-221.682 83.4069 -219.948 73.8721 -213.951 65.3646C-213.495 64.7162 -212.999 64.0757 -212.503 63.4352C-203.482 52.2107 -187.271 45.1698 -174.236 39.5379C-163.451 34.9016 -151.398 30.3159 -138.648 25.4584C-105.647 12.8935 -68.2509 -1.34427 -44.6243 -20.2416C-37.856 -25.6459 -32.3808 -32.155 -27.0754 -38.4431C-15.994 -51.6139 -5.5143 -64.0376 15.7185 -66.578C40.6506 -69.5545 63.771 -62.8588 86.1369 -56.3767L91.0739 -54.9398C94.9966 -53.8175 98.6974 -52.7296 102.432 -51.7284C125.716 -45.4836 153.298 -40.3633 181.167 -49.8148C183.566 -50.6207 185.915 -51.4703 188.146 -52.3256C210.27 -60.7884 216.592 -70.6215 222.156 -79.2974C225.649 -84.7508 228.956 -89.9013 235.719 -94.3586C240.578 -97.5502 247.366 -99.2937 254.571 -101.135C265.578 -103.942 278.04 -107.137 285.38 -116.502C292.249 -125.273 296.144 -135.778 299.927 -145.924C301.203 -149.368 302.416 -152.621 303.739 -155.827C306.765 -163.157 309.935 -168.732 313.72 -173.418C318.766 -179.595 324.517 -184.291 331.308 -187.752C341.429 -192.897 353.662 -194.909 364.3 -196.205C370.966 -197.007 376.792 -197.015 381.709 -196.962C383.644 -196.943 385.459 -196.872 387.197 -196.798C394.479 -196.499 400.768 -196.232 408.99 -200.441C411.049 -201.499 413.311 -202.864 416.086 -204.74C421.686 -208.525 426.227 -213.268 430.619 -217.853C439.85 -227.497 448.577 -236.594 465.949 -236.241C478.235 -235.99 490.035 -232.922 501.423 -229.95C514.432 -226.564 526.691 -223.373 539.616 -224.015C545.952 -224.339 552.432 -225.321 559.285 -226.349C566.838 -227.496 574.634 -228.673 582.599 -228.97L582.298 -230.044L582.281 -230.039Z" fill="white" fill-opacity="0.2"/>
</g>
<g opacity="0.7">
<path opacity="0.7" d="M586.924 -213.43C579.446 -213.462 572.089 -213.065 564.961 -212.673C557.338 -212.259 550.138 -211.848 543.491 -212.016C531.713 -212.312 520.444 -215.895 508.515 -219.7C496.736 -223.45 484.558 -227.319 471.462 -227.98C452.319 -228.938 441.595 -218.356 431.24 -208.109C427.473 -204.393 423.576 -200.525 419.301 -197.246C417.124 -195.576 414.88 -193.868 412.884 -192.518C405.695 -187.653 401.16 -187.099 394.288 -186.277C392.944 -186.114 391.523 -185.948 389.983 -185.729C388.792 -185.57 387.53 -185.391 386.209 -185.215C382.3 -184.701 377.887 -184.123 372.952 -183.206C361.431 -181.066 349.384 -178.527 339.719 -172.853C333.102 -168.977 327.658 -163.808 323.09 -157.089C318.878 -150.895 316.344 -144.012 314.583 -138.715C313.897 -136.612 313.208 -134.452 312.524 -132.273C308.886 -120.643 305.128 -108.613 296.91 -99.2141C288.643 -89.7825 275.279 -87.7441 263.504 -85.9571C257.321 -85.0193 251.474 -84.118 247.075 -82.2512C239.177 -78.8852 235.139 -74.5531 230.443 -69.5354C223.996 -62.6386 216.672 -54.8022 196.906 -46.1883C194.633 -45.2056 192.373 -44.2457 190.096 -43.2808C161.876 -31.4931 133.442 -35.3137 111.821 -39.9588C107.407 -40.9052 102.994 -41.9868 98.3131 -43.1287L97.1964 -43.3954C95.162 -43.9072 93.1326 -44.401 91.0982 -44.9128C69.3519 -50.3525 46.8661 -55.9521 22.5373 -52.6812C1.89289 -49.9001 -8.66669 -38.2452 -19.8608 -25.8919C-25.0249 -20.2029 -30.3638 -14.3107 -36.7847 -9.38954C-60.1274 8.52152 -96.2544 22.1921 -128.119 34.2656C-139.62 38.6196 -150.473 42.7347 -160.374 46.873C-172.95 52.1451 -188.625 58.6887 -197.89 69.0362C-198.42 69.628 -198.926 70.2327 -199.397 70.8274C-205.712 78.7486 -208.091 87.4986 -210.391 95.9759C-211.533 100.174 -212.712 104.517 -214.354 108.72C-215.217 110.948 -216.228 113.064 -217.289 115.136L-216.823 116.8C-215.453 114.314 -214.249 111.72 -213.179 108.989C-211.516 104.723 -210.324 100.357 -209.187 96.141C-206.808 87.391 -204.565 79.1226 -198.389 71.3947C-197.913 70.8179 -197.438 70.2411 -196.926 69.6543C-187.866 59.5379 -172.371 53.0443 -159.91 47.8431C-150.027 43.7098 -139.191 39.5997 -127.708 35.2507C-95.7543 23.1521 -59.5249 9.43367 -36.0054 -8.60402C-29.4921 -13.6089 -24.1046 -19.534 -18.9147 -25.2688C-7.89527 -37.4189 2.52034 -48.8984 22.6028 -51.6189C46.653 -54.8505 68.0221 -49.5176 90.6353 -43.8765C92.6697 -43.3647 94.7041 -42.8529 96.7514 -42.364L97.8681 -42.0974C102.549 -40.9555 106.962 -39.8738 111.399 -38.9146C133.224 -34.23 161.956 -30.3771 190.537 -42.3237C192.82 -43.2706 195.098 -44.2355 197.365 -45.2361C217.408 -53.9658 225.147 -62.2466 231.372 -68.9073C235.944 -73.8133 239.913 -78.0489 247.534 -81.299C251.759 -83.0978 257.517 -83.9742 263.606 -84.9048C275.641 -86.7261 289.283 -88.8037 297.887 -98.6189C306.285 -108.203 310.072 -120.338 313.739 -132.072C314.422 -134.251 315.093 -136.407 315.779 -138.509C317.502 -143.737 320.025 -150.521 324.15 -156.614C328.604 -163.185 333.912 -168.22 340.347 -171.987C349.799 -177.524 361.716 -180.045 373.089 -182.164C377.971 -183.066 382.383 -183.643 386.274 -184.152C387.613 -184.334 388.88 -184.495 390.071 -184.654C391.594 -184.868 393.014 -185.033 394.358 -185.197C401.19 -186.026 406.12 -186.614 413.602 -191.677C415.629 -193.054 417.885 -194.785 420.08 -196.46C424.417 -199.795 428.35 -203.673 432.142 -207.435C442.744 -217.905 452.77 -227.809 471.266 -226.883C484.181 -226.249 496.278 -222.395 507.994 -218.666C520.004 -214.846 531.378 -211.234 543.355 -210.916C550.061 -210.746 557.301 -211.149 564.96 -211.573C572.2 -211.977 579.675 -212.369 587.27 -212.331L586.96 -213.441L586.924 -213.43Z" fill="white" fill-opacity="0.2"/>
</g>
<g opacity="0.7">
<path opacity="0.7" d="M591.588 -196.751C587.471 -196.912 583.381 -197.042 579.328 -197.182C567.606 -197.552 556.526 -197.908 547.307 -198.919C536.438 -200.106 526.08 -204.022 515.128 -208.196C503.061 -212.772 490.578 -217.521 476.798 -218.628C455.913 -220.295 443.501 -208.295 431.484 -196.677C428.778 -194.068 425.998 -191.38 423.175 -188.912C421.81 -187.72 420.56 -186.599 419.408 -185.543C418.669 -184.874 417.978 -184.237 417.314 -183.646C410.047 -177.195 406.735 -176.134 398.76 -173.596L398.067 -173.383C394.982 -172.404 391.26 -171.499 386.942 -170.446C385.244 -170.029 383.47 -169.61 381.616 -169.13L381.271 -169.053C369.748 -166.16 357.844 -163.179 348.638 -157.035C342.28 -152.787 337.45 -147.423 333.415 -140.179C329.995 -134.051 328.106 -127.483 326.568 -121.322L325.81 -118.235C322.725 -105.66 319.205 -91.4 309.425 -81.3719C299.641 -71.3617 284.248 -70.7821 271.886 -70.336C267.129 -70.1637 262.624 -69.9848 259.113 -69.2924C249.057 -67.2915 244.242 -63.6683 236.922 -58.1676C230.255 -53.1585 221.963 -46.923 206.031 -39.0916C203.811 -37.9886 201.568 -36.8985 199.354 -35.7775C176.948 -24.5927 152.679 -21.9366 120.702 -27.1786C115.968 -27.9583 111.288 -28.8883 105.678 -30.0405C102.422 -30.7123 99.1781 -31.4071 95.9346 -32.1018C73.8472 -36.8287 53.0068 -41.306 29.4067 -37.7757C9.9385 -34.8603 -0.57487 -24.1446 -11.6891 -12.817C-16.7506 -7.65845 -21.9969 -2.33242 -28.1449 2.18442C-51.6727 19.4333 -87.0263 32.6946 -118.215 44.4248C-128.065 48.1244 -137.376 51.6151 -146.045 55.1197C-158.684 60.2356 -173.027 66.021 -182.267 75.1459C-182.794 75.679 -183.302 76.2071 -183.793 76.7302C-190.324 83.8818 -193.358 91.7347 -196.292 99.3278C-197.68 102.919 -199.116 106.62 -200.883 110.24C-204.158 116.887 -208.417 122.709 -213.726 127.879L-213.391 129.078C-207.723 123.672 -203.197 117.564 -199.746 110.578C-197.936 106.908 -196.505 103.189 -195.103 99.5744C-192.069 91.7215 -189.221 84.3067 -182.834 77.3304C-182.361 76.8123 -181.871 76.2892 -181.352 75.7969C-172.309 66.8623 -158.127 61.1219 -145.604 56.0768C-136.952 52.5773 -127.66 49.0916 -117.809 45.392C-86.5313 33.6368 -51.0753 20.3275 -27.4014 2.97993C-21.1739 -1.59774 -15.879 -6.95665 -10.7917 -12.161C0.17862 -23.3133 10.5072 -33.8616 29.4951 -36.7005C52.8345 -40.1965 73.5704 -35.7479 95.5175 -31.0397C98.761 -30.345 102.004 -29.6502 105.261 -28.9784C110.889 -27.8312 115.568 -26.9012 120.325 -26.1086C152.629 -20.8035 177.159 -23.4938 199.867 -34.8404C202.086 -35.9434 204.324 -37.0514 206.544 -38.1545C222.596 -46.0387 230.95 -52.33 237.665 -57.3721C244.827 -62.7511 249.545 -66.3086 259.255 -68.2322C262.654 -68.9125 267.087 -69.0714 271.786 -69.2466C284.413 -69.709 300.135 -70.2842 310.305 -80.7109C320.313 -90.9572 323.847 -105.375 326.973 -118.078L327.731 -121.165C329.267 -127.267 331.122 -133.748 334.472 -139.78C338.399 -146.859 343.116 -152.076 349.297 -156.197C358.29 -162.204 370.069 -165.149 381.467 -168.008L381.807 -168.103C383.665 -168.565 385.435 -169.002 387.132 -169.419C391.468 -170.476 395.231 -171.374 398.347 -172.38L399.04 -172.593C406.979 -175.122 410.608 -176.291 418.109 -182.942C418.791 -183.538 419.482 -184.175 420.221 -184.845C421.378 -185.882 422.605 -187.016 423.975 -188.19C426.816 -190.663 429.609 -193.374 432.332 -195.988C444.108 -207.365 456.292 -219.146 476.526 -217.529C490.125 -216.449 502.503 -211.728 514.484 -207.186C525.518 -202.996 535.95 -199.024 546.995 -197.829C556.272 -196.814 567.37 -196.463 579.133 -196.085C583.321 -195.944 587.587 -195.806 591.857 -195.649L591.552 -196.741L591.588 -196.751Z" fill="white" fill-opacity="0.2"/>
</g>
<g opacity="0.7">
<path opacity="0.7" d="M596.266 -180.017C596.19 -180.015 596.126 -180.035 596.049 -180.033C581.181 -181.028 564.387 -183.183 551.123 -185.823C541.157 -187.783 531.738 -192 521.748 -196.462C509.402 -201.964 496.649 -207.679 482.134 -209.275C458.355 -211.908 443.035 -196.568 429.524 -183.046L427.08 -180.607C425.026 -178.566 423.312 -176.62 421.752 -174.814L420.515 -173.368C415.038 -166.936 413.19 -164.779 406.168 -161.04C402.222 -158.934 396.636 -157.102 390.293 -155.077L387.083 -154.064C376.581 -150.761 365.722 -147.358 357.593 -141.227C351.555 -136.663 347.149 -130.955 343.776 -123.277C340.967 -116.896 339.612 -109.937 338.575 -103.916C336.285 -90.6374 333.436 -74.1145 321.963 -63.5165C310.275 -52.7231 292.506 -54.4313 279.538 -55.6684C276.481 -55.9715 273.588 -56.243 271.201 -56.2896C256.783 -56.6388 250.809 -53.0196 236.398 -44.3016C230.934 -40.9985 224.152 -36.8834 215.184 -31.9638C212.874 -30.7005 210.725 -29.4822 208.621 -28.2381C185.841 -14.9417 161.469 -10.6551 129.592 -14.3623C124.824 -14.9201 119.982 -15.6698 114.157 -16.6267C109.78 -17.3712 105.37 -18.1644 101.119 -18.9439C79.5986 -22.8839 59.2748 -26.618 36.2781 -22.7933C17.9811 -19.7616 7.5089 -10.0029 -3.57416 0.33183C-8.52017 4.93713 -13.6459 9.72776 -19.5131 13.7995C-43.5461 30.5528 -78.5331 43.538 -109.373 54.997C-117.225 57.9063 -124.634 60.6726 -131.706 63.4024C-143.771 68.0876 -157.455 73.3993 -166.635 81.2916C-167.163 81.7481 -167.669 82.2175 -168.174 82.6869C-174.979 89.0661 -178.705 96.0319 -182.298 102.786C-183.88 105.757 -185.513 108.818 -187.415 111.82C-192.784 120.364 -199.879 127.5 -209.099 133.59C-209.945 134.154 -210.837 134.693 -211.71 135.226L-211.41 136.3C-210.385 135.686 -209.383 135.058 -208.405 134.418C-199.02 128.224 -191.802 120.977 -186.342 112.273C-184.433 109.23 -182.787 106.146 -181.187 103.171C-177.46 96.2048 -173.953 89.6284 -167.303 83.3887C-166.828 82.9473 -166.322 82.4779 -165.807 82.0443C-156.817 74.3015 -143.846 69.2665 -131.314 64.3925C-124.264 61.6498 -116.85 58.9014 -108.998 55.9921C-78.051 44.5031 -42.9974 31.48 -18.8004 14.6229C-12.8588 10.4725 -7.69717 5.67185 -2.70746 1.01575C8.20872 -9.15657 18.5268 -18.7757 36.3972 -21.746C59.1383 -25.5185 79.3576 -21.8131 100.755 -17.8968C105.007 -17.1173 109.421 -16.3062 113.816 -15.5667C119.647 -14.5919 124.529 -13.8344 129.315 -13.2816C161.513 -9.52909 186.159 -13.8729 209.26 -27.3359C211.368 -28.5621 213.499 -29.7754 215.791 -31.0338C224.773 -35.9763 231.572 -40.0964 237.054 -43.4044C251.611 -52.2212 257.058 -55.5192 271.052 -55.1673C273.385 -55.1057 276.26 -54.8291 279.294 -54.5389C292.542 -53.2645 310.682 -51.544 322.85 -62.761C334.631 -73.6381 337.501 -90.3599 339.827 -103.784C340.862 -109.747 342.178 -116.637 344.958 -122.913C348.269 -130.4 352.526 -135.951 358.406 -140.393C366.339 -146.393 377.073 -149.76 387.455 -153.01L390.664 -154.024C397.079 -156.068 402.719 -157.915 406.786 -160.075C414.043 -163.937 416.079 -166.32 421.525 -172.724L422.762 -174.17C424.291 -175.948 425.987 -177.889 428.01 -179.902L430.455 -182.341C443.737 -195.645 458.802 -210.721 481.885 -208.163C496.201 -206.589 508.862 -200.925 521.122 -195.457C531.175 -190.974 540.659 -186.737 550.752 -184.735C564.069 -182.11 580.927 -179.935 595.836 -178.932C596.071 -178.92 596.329 -178.896 596.564 -178.884L596.248 -180.012L596.266 -180.017Z" fill="white" fill-opacity="0.2"/>
</g>
<g opacity="0.7">
<path opacity="0.7" d="M600.96 -163.23C600.562 -163.273 600.151 -163.293 599.771 -163.341C587.089 -164.523 572.003 -167.676 554.962 -172.714C545.937 -175.381 537.451 -179.781 528.447 -184.442C515.852 -190.974 502.804 -197.746 487.511 -199.915C461.932 -203.53 443.015 -185.873 431.012 -172.271C429.311 -170.348 427.768 -168.276 426.258 -165.944C424.486 -163.171 423.309 -160.893 422.263 -158.903C420.229 -154.996 418.778 -152.178 414.339 -148.66C410.543 -145.669 404.744 -143.218 399.033 -141.004C397.311 -140.33 395.543 -139.681 393.762 -139.009C383.992 -135.371 373.908 -131.606 366.594 -125.393C360.822 -120.499 356.876 -114.456 354.182 -106.351C352.092 -100.093 351.345 -93.6519 350.645 -86.4904C349.13 -70.9964 346.14 -55.3218 334.547 -45.6358C320.377 -33.7817 299.159 -39.1954 286.478 -42.4424C285.357 -42.7269 284.294 -43.0086 283.304 -43.2337C262.715 -48.2636 256.107 -44.2164 224.4 -24.8157C222.222 -23.4929 220.065 -22.0985 217.953 -20.6784C194.823 -5.18098 170.342 0.718349 138.541 -1.54367C132.988 -1.93997 127.414 -2.61975 122.707 -3.23338C117.275 -3.95318 111.873 -4.77746 106.646 -5.59311C85.6049 -8.85648 65.7318 -11.9448 43.2162 -7.84939C26.0445 -4.72709 15.6006 4.0975 4.53588 13.4623C-0.271738 17.5272 -5.25122 21.7366 -10.8276 25.399C-36.0288 41.9773 -71.4009 54.8965 -102.608 66.2845C-107.653 68.1196 -112.591 69.9246 -117.344 71.6975L-117.902 71.9113C-129.722 76.2967 -141.944 80.833 -150.938 87.4576C-151.464 87.8555 -151.989 88.2533 -152.497 88.6461C-159.642 94.2907 -163.936 100.122 -168.478 106.313C-170.186 108.623 -171.928 111.021 -173.852 113.392C-179.704 120.624 -186.933 126.794 -195.982 132.257C-200.457 134.955 -205.34 137.44 -210.366 139.829L-210.075 140.867C-204.93 138.425 -199.927 135.887 -195.336 133.118C-186.154 127.579 -178.796 121.315 -172.844 113.959C-170.908 111.565 -169.148 109.163 -167.426 106.829C-162.936 100.73 -158.686 94.9496 -151.682 89.4216C-151.192 89.0338 -150.684 88.641 -150.172 88.2661C-141.319 81.758 -129.199 77.2697 -117.487 72.9143L-116.911 72.6955C-112.157 70.9226 -107.233 69.1405 -102.175 67.2825C-70.8959 55.8745 -35.4343 42.9302 -10.0869 26.2532C-4.44901 22.5351 0.566283 18.3156 5.3997 14.2049C16.3105 4.9796 26.5953 -3.72334 43.399 -6.78133C65.6541 -10.8425 85.4276 -7.76493 106.347 -4.52523C111.591 -3.71458 116.999 -2.87238 122.448 -2.15758C127.195 -1.53608 132.788 -0.861323 138.382 -0.457134C170.517 1.82718 195.29 -4.13429 218.712 -19.8292C220.81 -21.2264 222.95 -22.6158 225.11 -23.9336C256.387 -43.0789 262.897 -47.0602 282.923 -42.1816C283.894 -41.9515 284.958 -41.6698 286.079 -41.3853C299.027 -38.0781 320.681 -32.5547 335.434 -44.8803C347.335 -54.8454 350.413 -70.7569 351.945 -86.4678C352.641 -93.5706 353.385 -99.9532 355.447 -106.106C358.084 -114.002 361.921 -119.88 367.504 -124.625C374.633 -130.67 384.614 -134.387 394.26 -137.991C396.04 -138.662 397.808 -139.311 399.548 -139.99C405.367 -142.234 411.286 -144.739 415.223 -147.846C419.87 -151.519 421.385 -154.451 423.479 -158.49C424.506 -160.475 425.675 -162.713 427.422 -165.439C428.901 -167.744 430.423 -169.752 432.063 -171.619C443.842 -184.985 462.403 -202.331 487.298 -198.813C502.387 -196.684 515.325 -189.958 527.847 -183.483C536.896 -178.797 545.434 -174.353 554.563 -171.657C571.686 -166.603 586.835 -163.429 599.616 -162.236C600.173 -162.18 600.765 -162.133 601.375 -162.091L601.049 -163.255L600.96 -163.23Z" fill="white" fill-opacity="0.2"/>
</g>
<g opacity="0.7">
<path opacity="0.7" d="M605.663 -146.406C604.949 -146.476 604.235 -146.547 603.479 -146.625C587.766 -148.503 571.333 -154.541 558.806 -159.586C550.762 -162.818 543.228 -167.33 535.237 -172.1C522.375 -179.792 509.055 -187.742 492.87 -190.549C468.533 -194.763 446.982 -179.553 434.932 -163.911C433.255 -161.764 431.897 -159.512 430.752 -157.05C429.028 -153.346 428.303 -150.21 427.679 -147.469C426.778 -143.513 425.993 -140.109 422.519 -136.243C419.002 -132.327 413.087 -129.323 407.761 -126.907C405.552 -125.904 403.279 -124.921 400.97 -123.928C391.772 -119.967 382.262 -115.88 375.595 -109.559C370.089 -104.334 366.591 -97.9334 364.584 -89.4417C363.038 -82.8926 362.863 -75.9936 362.7 -69.3295L362.688 -69.0946C362.359 -56.1901 360.386 -37.8473 347.121 -27.7903C335.311 -18.8152 318.378 -19.5997 295.385 -30.1901C273.94 -40.0749 263.55 -37.961 233.607 -17.7029C231.495 -16.2827 229.377 -14.7452 227.293 -13.1589C203.879 4.63687 179.271 12.1539 147.503 11.2526C142.891 11.1143 137.736 10.7611 131.252 10.1426C124.863 9.51699 118.536 8.70024 112.403 7.88714C91.7566 5.208 72.2506 2.67313 50.1493 7.0772C34.0442 10.2872 23.5979 18.2055 12.5514 26.6004C7.91803 30.1149 3.10773 33.7561 -2.11117 36.9712C-30.112 54.2357 -69.4263 68.1027 -101.01 79.2487L-104.752 80.5652C-115.471 84.3339 -126.538 88.2386 -135.243 93.5477C-135.771 93.8689 -136.294 94.208 -136.804 94.5242C-144.535 99.5223 -149.752 104.608 -155.249 110.005C-156.887 111.601 -158.537 113.22 -160.296 114.87C-166.577 120.774 -173.977 125.989 -182.894 130.817C-189.115 134.177 -196.093 137.382 -202.848 140.486C-205.003 141.475 -207.159 142.463 -209.309 143.47L-209.019 144.508C-206.802 143.464 -204.557 142.45 -202.353 141.429C-195.58 138.319 -188.584 135.109 -182.315 131.716C-173.282 126.817 -165.784 121.537 -159.411 115.549C-157.653 113.899 -155.984 112.275 -154.351 110.661C-148.898 105.315 -143.73 100.262 -136.109 95.3526C-135.599 95.0364 -135.094 94.7023 -134.584 94.3861C-126.007 89.1707 -114.994 85.2812 -104.365 81.5375L-100.622 80.2209C-68.9671 69.055 -29.5811 55.1679 -1.45216 37.8097C3.83334 34.5566 8.65654 30.8926 13.3208 27.3502C24.244 19.0669 34.5851 11.2552 50.3221 8.10948C72.1857 3.75258 91.5743 6.28165 112.098 8.93713C118.244 9.72732 124.576 10.562 131.006 11.1955C137.513 11.8269 142.704 12.1701 147.357 12.3163C179.494 13.2298 204.384 5.61483 228.085 -12.3963C230.157 -13.9597 232.261 -15.4743 234.337 -16.8845C265.493 -37.9833 274.696 -38.4726 294.744 -29.239C318.249 -18.4058 335.644 -17.6926 347.919 -27.0098C361.593 -37.3938 363.617 -56.0401 363.963 -69.1615L363.974 -69.3963C364.147 -76.0246 364.319 -82.8649 365.837 -89.3096C367.786 -97.5923 371.181 -103.809 376.521 -108.872C383.002 -115.026 392.41 -119.065 401.488 -122.973C403.815 -123.971 406.105 -124.958 408.314 -125.962C413.756 -128.448 419.84 -131.539 423.519 -135.635C427.204 -139.714 428.008 -143.258 428.95 -147.342C429.565 -150.042 430.27 -153.114 431.96 -156.732C433.066 -159.125 434.409 -161.295 436.006 -163.382C447.817 -178.706 468.876 -193.605 492.583 -189.504C508.541 -186.749 521.752 -178.846 534.522 -171.205C542.541 -166.404 550.116 -161.884 558.247 -158.62C570.86 -153.54 587.38 -147.469 603.256 -145.559C604.216 -145.442 605.129 -145.35 606.037 -145.276L605.717 -146.421L605.663 -146.406Z" fill="white" fill-opacity="0.2"/>
</g>
<g opacity="0.7">
<path opacity="0.7" d="M610.372 -129.565C609.341 -129.663 608.282 -129.791 607.178 -129.945C591.467 -132.229 575.113 -139.987 562.599 -146.503C555.599 -150.142 549.053 -154.641 542.108 -159.394C528.958 -168.395 515.375 -177.7 498.214 -181.237C473.868 -186.24 449.907 -172.131 438.832 -155.624C437.264 -153.294 436.047 -150.812 435.225 -148.228C433.855 -143.947 433.802 -140.343 433.741 -136.834C433.664 -132.278 433.593 -128.321 430.68 -123.899C428.174 -120.091 423.922 -116.799 416.455 -112.859C413.917 -111.513 411.283 -110.236 408.51 -108.901C399.744 -104.636 390.684 -100.251 384.545 -93.7684C379.287 -88.2076 376.231 -81.4678 374.94 -72.5585C374.043 -66.1716 374.334 -59.5381 374.624 -53.1164L374.69 -51.707C375.573 -31.5 370.509 -17.4453 359.641 -9.93005C340.569 3.23659 314.815 -12.1199 307.371 -17.1395C286.702 -31.0813 273.163 -33.2584 242.759 -10.5752C240.701 -9.03479 238.618 -7.37194 236.578 -5.6246C212.629 14.8102 188.649 23.676 156.389 24.0509C151.52 24.1001 146.073 23.9443 139.721 23.5205C132.424 23.0327 125.242 22.2622 118.299 21.5212C97.964 19.3339 78.7642 17.273 57.0057 22.0058C41.9086 25.3006 30.9062 32.6797 20.2398 39.8106C15.8521 42.7547 11.3184 45.7975 6.51065 48.5503C-23.3658 65.6639 -62.0894 79.3658 -88.6276 88.1942L-92.5692 89.4892C-101.882 92.5562 -111.495 95.7261 -119.603 99.6525C-120.128 99.915 -120.652 100.178 -121.177 100.44C-130.326 105.063 -137.092 109.714 -144.243 114.646L-146.771 116.375C-153.33 120.872 -160.878 125.144 -169.851 129.428C-173.273 131.06 -176.765 132.654 -180.461 134.343C-189.906 138.663 -199.526 143.05 -208.016 148.164L-207.716 149.238C-199.218 144.083 -189.519 139.635 -179.966 135.285C-176.27 133.596 -172.76 131.997 -169.338 130.365C-160.298 126.043 -152.683 121.733 -146.058 117.199L-143.531 115.47C-136.1 110.363 -129.675 105.942 -120.629 101.367C-120.122 101.11 -119.597 100.847 -119.067 100.603C-111.043 96.7191 -101.467 93.5592 -92.2074 90.5072L-88.2658 89.2122C-61.6739 80.3688 -22.8428 66.6369 7.14886 49.4525C11.9874 46.6718 16.5569 43.6189 20.9625 40.6698C32.0006 33.2807 42.4186 26.2964 57.2114 23.0867C78.7501 18.3961 97.8325 20.4512 118.045 22.6148C125.011 23.3688 132.211 24.1343 139.525 24.6171C145.913 25.0309 151.401 25.1945 156.288 25.1403C188.913 24.7598 213.17 15.7782 237.401 -4.88991C239.428 -6.61434 241.475 -8.26719 243.521 -9.78473C272.794 -31.6114 285.488 -30.4525 306.557 -16.2558C314.171 -11.1101 340.561 4.58951 360.377 -9.09372C371.604 -16.8443 376.848 -31.2197 375.955 -51.8096L375.889 -53.2191C375.609 -59.6049 375.314 -66.1798 376.195 -72.4851C377.453 -81.1725 380.405 -87.7291 385.502 -93.1096C391.461 -99.4067 400.418 -103.744 409.064 -107.956C411.734 -109.243 414.484 -110.591 417.04 -111.942C424.729 -115.983 429.135 -119.415 431.762 -123.41C434.852 -128.095 434.933 -132.362 434.997 -136.896C435.06 -140.329 435.111 -143.874 436.444 -148.009C437.232 -150.507 438.415 -152.902 439.914 -155.135C450.469 -170.879 474.372 -184.991 497.837 -180.167C514.749 -176.695 528.258 -167.447 541.294 -158.511C548.262 -153.744 554.849 -149.237 561.899 -145.555C574.482 -139 590.968 -131.183 606.86 -128.872C608.169 -128.679 609.44 -128.552 610.664 -128.45L610.354 -129.56L610.372 -129.565Z" fill="white" fill-opacity="0.2"/>
</g>
<g opacity="0.7">
<path opacity="0.7" d="M615.081 -112.724C613.738 -112.831 612.345 -112.982 610.904 -113.235C598.707 -115.305 583.747 -122.082 566.443 -133.376C560.565 -137.213 555.034 -141.532 549.181 -146.109C535.74 -156.63 521.835 -167.504 503.595 -171.859C479.132 -177.697 452.394 -163.854 442.787 -147.275C441.328 -144.763 440.319 -142.089 439.773 -139.35C438.86 -134.676 439.449 -130.499 440.016 -126.47C440.737 -121.404 441.415 -116.635 438.914 -111.497C436.767 -107.096 432.542 -103.155 425.182 -98.7627C422.37 -97.0886 419.322 -95.4261 416.354 -93.8244C407.939 -89.2718 399.234 -84.5805 393.533 -77.9117C388.475 -71.9822 385.861 -64.903 385.333 -55.609C384.999 -49.4181 385.721 -43.0399 386.419 -36.8866L386.707 -34.2658C388.261 -20.1509 387.007 -1.37267 372.172 7.96582C355.235 18.625 333.124 8.15443 319.331 -4.04341C298.562 -22.4146 281.666 -27.7632 251.922 -3.41202C249.893 -1.76419 247.869 0.0368265 245.856 1.95024C221.74 24.8245 197.646 35.2851 165.289 36.9026C160.151 37.1621 154.56 37.1817 148.204 36.9519C140.056 36.6635 132.105 35.9729 124.412 35.3068C104.332 33.5498 85.3644 31.9063 63.8642 37.0106C49.604 40.3995 38.3307 46.9475 27.439 53.273C23.4712 55.5788 19.3702 57.9603 15.1475 60.1829C-10.5264 73.6902 -42.314 86.5913 -74.3193 96.5045C-77.1991 97.3868 -80.0968 98.2741 -82.9815 99.1386C-90.0477 101.269 -97.3516 103.446 -103.955 105.852L-105.531 106.427C-115.396 110.073 -123.675 113.526 -133.238 117.975C-140.665 121.441 -148.636 124.75 -156.823 128.12C-175.706 135.889 -194.804 144.547 -205.51 157.265L-205.139 158.59C-194.772 145.696 -175.469 136.942 -156.363 129.072C-148.159 125.698 -140.175 122.365 -132.713 118.89C-123.203 114.456 -114.937 111.025 -105.125 107.394L-103.549 106.819C-96.9769 104.441 -89.6959 102.251 -82.6426 100.144C-79.74 99.2743 -76.8373 98.4048 -73.9625 97.5046C-41.8677 87.5664 -10.0135 74.6274 15.7449 61.0772C20.0034 58.8445 24.1173 56.4401 28.103 54.1294C39.4071 47.5534 50.0632 41.3517 64.1265 38.0179C85.4069 32.9557 104.262 34.6113 124.219 36.3446C131.936 37.0237 139.905 37.7093 148.076 38.0105C154.467 38.2303 160.076 38.2057 165.273 37.9491C198.012 36.321 222.401 25.7395 246.771 2.6012C248.753 0.71571 250.765 -1.06241 252.763 -2.68233C281.758 -26.3996 298.213 -21.1786 318.446 -3.27492C332.554 9.22081 355.297 19.8812 372.889 8.80714C388.265 -0.875483 389.58 -20.0567 387.982 -34.468L387.694 -37.0887C387.006 -43.2063 386.276 -49.5436 386.613 -55.658C387.129 -64.7171 389.645 -71.5953 394.546 -77.3266C400.072 -83.7921 408.674 -88.4355 416.974 -92.9172C419.942 -94.5189 423.026 -96.1915 425.851 -97.8884C430.957 -100.956 437.175 -105.222 440.074 -111.146C442.698 -116.53 441.999 -121.448 441.273 -126.668C440.708 -130.62 440.139 -134.725 441.02 -139.236C441.538 -141.87 442.505 -144.417 443.913 -146.837C453.288 -163.004 479.337 -176.481 503.196 -170.802C521.204 -166.517 534.995 -155.708 548.334 -145.274C553.943 -140.88 559.746 -136.347 565.67 -132.484C583.111 -121.113 598.227 -114.264 610.587 -112.162C612.267 -111.88 613.882 -111.694 615.437 -111.589L615.116 -112.734L615.081 -112.724Z" fill="white" fill-opacity="0.2"/>
</g>
<g opacity="0.7">
<path opacity="0.7" d="M619.789 -95.8826C618.141 -95.9812 616.421 -96.1951 614.603 -96.5551C597.075 -99.9518 577.749 -114.269 570.241 -120.274C565.542 -124.035 560.886 -128.194 556.406 -132.209C542.664 -144.499 528.455 -157.217 508.944 -162.529C486.071 -168.754 455.809 -157.302 446.692 -138.969C445.341 -136.276 444.536 -133.426 444.269 -130.515C443.817 -125.507 445.046 -120.834 446.23 -116.321C447.757 -110.516 449.217 -105.019 447.115 -99.1444C445.32 -94.1078 441.24 -89.6482 433.882 -84.6966C430.907 -82.7069 427.633 -80.7496 424.456 -78.858C416.297 -74.0104 407.841 -68.9833 402.506 -62.1082C397.635 -55.7871 395.468 -48.3506 395.725 -38.7357C395.895 -32.7435 397.001 -26.6466 398.07 -20.7515C398.295 -19.4637 398.538 -18.1808 398.758 -16.9109C400.44 -7.44371 402.422 15.6591 384.74 25.7934C366.359 36.3934 344.475 23.3509 331.325 8.9665C318.096 -5.49241 306.352 -12.2236 294.376 -12.194C283.888 -12.156 273.005 -6.97152 261.119 3.66502C259.204 5.37732 257.202 7.32651 255.186 9.4339C231.057 34.8199 206.839 46.8395 174.219 49.6502C168.793 50.1251 163.081 50.3329 156.739 50.2921C147.809 50.2418 139.148 49.634 130.762 49.0457C110.863 47.6624 92.0678 46.3568 70.7643 51.8886C56.7144 55.5466 44.6402 61.5081 32.9528 67.265C29.9317 68.7465 26.8977 70.2508 23.813 71.7114C3.21786 81.5025 -27.8514 95.5921 -59.9645 104.706C-69.3162 107.359 -79.0771 109.721 -88.2704 111.906L-89.8606 112.292C-93.1713 113.083 -96.3617 113.821 -99.5213 114.53C-106.395 116.105 -112.889 117.592 -119.665 119.448C-126.888 121.429 -135.319 123.787 -143.776 126.672C-161.002 132.569 -183.185 143.17 -191.037 160.089C-196.561 172.015 -193.616 184.621 -190.767 196.811C-188.838 205.09 -186.855 213.566 -187.406 222.017L-186.505 225.239C-185.122 215.551 -187.355 205.91 -189.563 196.493C-192.504 183.905 -195.285 172.024 -189.893 160.386C-182.223 143.847 -160.387 133.458 -143.411 127.631C-135.008 124.761 -126.613 122.414 -119.407 120.438C-112.667 118.592 -106.192 117.109 -99.3356 115.54C-96.181 114.812 -92.9676 114.087 -89.6569 113.297L-88.0667 112.91C-78.8556 110.721 -69.0946 108.358 -59.6893 105.69C-27.4738 96.5285 3.68498 82.4139 24.3109 72.5949C27.3956 71.1343 30.4296 69.6299 33.4635 68.1256C45.6222 62.1212 57.0871 56.4651 70.9937 52.8471C92.0416 47.3675 110.738 48.6623 130.519 50.0398C138.922 50.6232 147.602 51.226 156.573 51.2842C162.973 51.3278 168.721 51.11 174.187 50.643C207.204 47.7988 231.688 35.6276 256.076 9.99541C258.061 7.91593 260.033 5.99462 261.934 4.30523C273.539 -6.09806 284.109 -11.1567 294.214 -11.184C305.803 -11.2209 317.264 -4.60362 330.269 9.60897C343.722 24.3142 366.217 37.6102 385.313 26.5981C403.66 16.0848 401.664 -7.55423 399.945 -17.2233C399.725 -18.4932 399.5 -19.7811 399.252 -21.0818C398.192 -26.9411 397.073 -33.0151 396.923 -38.9357C396.691 -48.3258 398.764 -55.5434 403.479 -61.6663C408.674 -68.3481 416.997 -73.2994 425.059 -78.0812C428.254 -79.9777 431.563 -81.9451 434.552 -83.9576C439.647 -87.4083 445.822 -92.2415 448.256 -99.0001C450.453 -105.153 448.976 -110.779 447.41 -116.728C446.245 -121.169 445.023 -125.748 445.475 -130.621C445.718 -133.409 446.504 -136.119 447.791 -138.697C456.642 -156.532 486.129 -167.651 508.438 -161.578C527.676 -156.344 541.784 -143.712 555.447 -131.498C559.95 -127.47 564.606 -123.31 569.333 -119.519C578.731 -111.997 597.059 -98.9053 614.201 -95.5745C616.242 -95.1801 618.201 -94.9368 620.074 -94.8624L619.789 -95.8826Z" fill="white" fill-opacity="0.2"/>
</g>
<g opacity="0.7">
<path opacity="0.7" d="M624.473 -79.1308C607.356 -79.7479 586.105 -95.4952 574.049 -107.137C570.589 -110.472 567.15 -114.007 563.799 -117.431C549.75 -131.854 535.202 -146.754 514.285 -153.159C499.131 -157.798 478.652 -154.774 464.487 -145.797C454.369 -139.398 448.779 -130.811 448.776 -121.645C448.778 -116.32 450.633 -111.204 452.42 -106.262C454.803 -99.6728 457.063 -93.4545 455.322 -86.7737C452.75 -76.8505 442.928 -70.496 432.534 -63.7694C424.627 -58.6447 416.434 -53.3633 411.466 -46.282C402.36 -33.2967 406.071 -18.4345 409.652 -4.03751C410.042 -2.50625 410.409 -0.987869 410.77 0.512612C412.565 8.03784 416.891 33.3798 397.266 43.6716C377.663 53.9763 355.913 38.4457 343.257 22.0321C329.053 3.60081 315.26 -5.14321 301.089 -4.75073C289.026 -4.40766 276.691 2.90019 264.476 16.9861C236.05 49.7099 208.219 62.817 165.218 63.7058C155.569 63.9144 146.261 63.4102 137.246 62.9204C117.65 61.858 99.1156 60.8653 78.2444 66.7007C78.0474 66.7557 77.8327 66.8158 77.6358 66.8708C56.7051 72.8386 37.208 81.2421 18.3532 89.3888C-10.3063 101.743 -39.9282 114.521 -74.1911 118.293C-79.7525 118.902 -85.4356 119.353 -90.9347 119.771C-104.084 120.784 -117.664 121.841 -130.712 125.354C-147.448 129.899 -167.455 140.895 -172.953 158.159C-176.767 170.127 -172.643 181.98 -168.646 193.443C-164.532 205.26 -160.262 217.496 -165.033 229.559C-165.619 231.054 -166.377 232.482 -167.195 233.907L-165.584 233.456C-164.949 232.275 -164.36 231.069 -163.858 229.828C-158.969 217.424 -163.28 205.045 -167.462 193.054C-171.4 181.729 -175.485 170.02 -171.762 158.347C-166.493 141.784 -147.473 131.121 -131.148 126.557C-130.915 126.492 -130.683 126.427 -130.45 126.362C-117.55 122.871 -104.023 121.829 -90.9509 120.818C-85.4339 120.394 -79.7458 119.962 -74.1715 119.329C-39.6888 115.516 -9.9416 102.703 18.8024 90.3052C37.6085 82.1914 57.0697 73.7979 77.8931 67.8602C78.0899 67.8051 78.2868 67.7501 78.5016 67.69C99.1402 61.9197 117.557 62.9066 137.036 63.9633C146.068 64.4481 155.417 64.9602 165.107 64.7595C208.014 63.8778 237.074 50.1956 265.425 17.5505C277.383 3.78732 289.357 -3.36174 300.996 -3.70211C314.744 -4.09185 328.213 4.53039 342.174 22.6438C355.106 39.424 377.437 55.236 397.817 44.5401C418.216 33.8391 413.81 7.8636 411.97 0.177281C411.608 -1.32318 411.236 -2.85944 410.847 -4.39069C407.325 -18.5729 403.669 -33.2383 412.503 -45.8193C417.332 -52.7074 425.391 -57.9129 433.201 -62.9717C443.825 -69.84 453.842 -76.3261 456.524 -86.6852C458.32 -93.6516 455.922 -100.294 453.584 -106.723C451.818 -111.593 450.001 -116.642 450.002 -121.814C449.994 -130.61 455.371 -138.848 465.131 -145.012C478.973 -153.764 498.967 -156.73 513.744 -152.197C534.387 -145.87 548.829 -131.075 562.789 -116.763C566.122 -113.334 569.579 -109.804 573.045 -106.451C576.607 -103.028 602.931 -78.3178 624.752 -77.9933L624.437 -79.1208L624.473 -79.1308Z" fill="white" fill-opacity="0.2"/>
</g>
</g>
<path d="M572.928 -263.488C565.533 -262.327 558.327 -259.869 551.323 -257.448C545.007 -255.257 538.476 -253.007 531.931 -251.775C517.44 -249.074 502.857 -251.326 488.772 -253.524C477.939 -255.203 466.738 -256.954 455.395 -256.522C438.416 -255.885 431.047 -246.763 423.917 -237.958C419.343 -232.299 414.589 -226.454 407.281 -222.636C393.615 -215.534 383.023 -218.42 370.773 -221.787C363.416 -223.801 355.792 -225.876 346.867 -225.909C322.427 -226.003 305.375 -220.521 291.566 -208.132C280.411 -198.124 274.485 -185.218 268.756 -172.714C265.719 -166.114 262.593 -159.278 258.723 -152.966C253.592 -144.605 244.032 -140.349 233.901 -135.858C225.299 -132.044 216.425 -128.096 210.54 -121.395C203.882 -113.803 201.542 -105.951 199.303 -98.3593C195.52 -85.589 192.253 -74.5644 169.236 -68.0519C140.642 -60.0187 110.848 -68.9779 85.3767 -78.8368L79.6554 -81.0771C55.1294 -90.6602 29.7653 -100.549 1.86169 -98.054C-22.632 -95.8561 -34.03 -80.4356 -45.0627 -65.5032C-50.448 -58.1894 -56.0389 -50.6445 -63.1483 -44.5274C-86.7368 -24.2514 -126.173 -9.09597 -160.974 4.28081C-176.413 10.2183 -190.982 15.816 -203.634 21.5726C-217.003 27.6646 -229.021 33.5524 -237.824 41.6868L-237.149 44.1029C-228.556 35.6993 -216.326 29.6749 -202.649 23.439C-190.068 17.7025 -175.535 12.1147 -160.145 6.2102C-125.135 -7.24453 -85.4574 -22.5058 -61.4944 -43.0988C-54.1644 -49.3933 -48.5141 -57.0707 -43.0235 -64.4911C-31.8647 -79.5938 -21.3413 -93.8629 1.85221 -95.948C29.0943 -98.3933 54.1628 -88.5954 78.4239 -79.1313L84.1631 -76.896C109.981 -66.9023 140.297 -57.7998 169.546 -65.9774L169.796 -66.0474C194.263 -72.9653 197.864 -85.1444 201.693 -98.0242C203.88 -105.389 206.144 -113.027 212.466 -120.236C217.952 -126.497 226.555 -130.311 234.886 -133.991C244.963 -138.468 255.388 -143.081 260.924 -152.135C264.859 -158.561 268.028 -165.448 271.087 -172.111C276.722 -184.396 282.554 -197.083 293.304 -206.746C306.546 -218.61 322.987 -223.863 346.65 -223.784C355.211 -223.746 362.649 -221.715 369.837 -219.75C382.123 -216.393 393.742 -213.216 408.422 -220.832C416.255 -224.913 421.179 -230.979 425.928 -236.841C432.983 -245.567 439.655 -253.8 455.296 -254.391C466.351 -254.819 477.429 -253.093 488.144 -251.419C502.47 -249.192 517.297 -246.892 532.282 -249.692C539.07 -250.954 545.703 -253.252 552.108 -255.467C559.077 -257.879 566.26 -260.35 573.54 -261.44L572.964 -263.498L572.928 -263.488Z" fill="white" fill-opacity="0.2"/>
<path d="M624.328 -79.65C607.497 -80.3472 586.47 -95.9834 574.545 -107.507C571.084 -110.842 567.645 -114.377 564.317 -117.788C550.218 -132.255 535.636 -147.204 514.574 -153.645C499.252 -158.334 478.53 -155.28 464.178 -146.212C453.865 -139.682 448.18 -130.953 448.191 -121.597C448.196 -116.195 450.061 -111.044 451.858 -106.066C454.22 -99.5486 456.447 -93.3789 454.76 -86.8484C452.246 -77.1343 442.522 -70.8456 432.226 -64.1848C424.269 -59.0272 416.028 -53.713 410.996 -46.5172C401.75 -33.3386 405.473 -18.3639 409.08 -3.8775C409.469 -2.34625 409.836 -0.827883 410.198 0.672591C411.968 8.10834 416.244 33.1361 397.011 43.2411C377.754 53.3333 356.338 37.9604 343.808 21.7236C329.487 3.15128 315.534 -5.68299 301.138 -5.26628C288.845 -4.91683 276.365 2.48977 264.013 16.7102C235.736 49.2766 208.056 62.3029 165.267 63.1903C155.654 63.3889 146.346 62.8847 137.354 62.4078C117.505 61.3388 98.7637 60.3654 77.5008 66.3875C56.5343 72.3653 37.0064 80.7966 18.1288 88.9305C-11.7874 101.829 -40.0502 114.015 -74.2136 117.797C-79.7571 118.402 -85.4402 118.852 -90.9393 119.271C-104.106 120.289 -117.745 121.343 -130.842 124.889C-147.851 129.49 -167.977 140.616 -173.545 158.112C-177.395 170.226 -173.246 182.168 -169.235 193.685C-164.949 205.975 -160.913 217.582 -165.612 229.489C-166.257 231.117 -167.08 232.659 -167.967 234.18L-164.781 233.29C-164.211 232.223 -163.704 231.136 -163.266 230.01C-158.306 217.451 -162.641 204.982 -166.843 192.92C-170.762 181.666 -174.808 170.023 -171.158 158.506C-165.888 141.943 -146.583 131.335 -130.308 126.939C-117.479 123.468 -103.988 122.436 -90.9567 121.417C-85.4397 120.994 -79.7337 120.556 -74.1365 119.937C-39.5414 116.111 -9.7455 103.265 19.0522 90.8528C37.8404 82.7439 57.2708 74.3784 78.0583 68.4506C98.6977 62.545 117.345 63.5255 136.941 64.588C145.991 65.0678 155.34 65.5799 165.071 65.3871C208.202 64.4812 237.423 50.7539 265.924 17.9514C277.751 4.34062 289.532 -2.73551 300.964 -3.0566C314.306 -3.44864 328.001 5.3612 341.658 23.0772C354.74 40.0472 377.358 55.991 398.108 45.0955C418.875 34.195 414.443 7.91807 412.59 0.119365C412.229 -1.38111 411.857 -2.91737 411.468 -4.44863C407.976 -18.5234 404.35 -33.0814 413.04 -45.4871C417.799 -52.2786 425.81 -57.4512 433.554 -62.4722C443.801 -69.1 454.407 -75.9632 457.128 -86.5262C458.966 -93.6201 456.53 -100.329 454.19 -106.834C452.433 -111.669 450.626 -116.682 450.635 -121.759C450.641 -130.367 455.91 -138.44 465.488 -144.494C479.166 -153.142 498.905 -156.056 513.508 -151.591C534.001 -145.319 548.398 -130.549 562.307 -116.281C565.639 -112.851 569.101 -109.304 572.585 -105.956C576.18 -102.484 602.758 -77.5557 624.928 -77.3671L624.292 -79.64L624.328 -79.65Z" fill="white" fill-opacity="0.2"/>
</g>
<defs>
<clipPath id="clip0_65_493">
<rect width="863" height="435" fill="white" transform="translate(-300 -180.625) rotate(-15.6205)"/>
</clipPath>
</defs>
</svg>
