<svg width="50" height="60" viewBox="0 35 53 65" fill="none" xmlns="http://www.w3.org/2000/svg">
<path d="M47.0864 42.6312C51.0287 37.6501 53.2104 31.2032 52.6851 24.2297C51.7149 11.3452 41.3078 0.951358 28.5012 0.0642489C13.243 -0.99364 0.540527 11.1507 0.540527 26.279C0.540527 32.5789 2.74595 38.357 6.41377 42.8827C7.8951 44.7091 8.20272 47.2376 7.13787 49.3391C6.9249 49.7613 6.71193 50.1883 6.53209 50.6627C4.07583 57.1191 11.2269 62.214 12.4574 56.991C12.9165 55.046 12.022 53.3714 13.0064 52.7832C14.4499 52.6409 13.9103 55.677 13.5838 61.4598C13.1152 63.7606 12.765 65.2359 13.2998 66.531C13.9671 68.1534 16.6411 69.0168 16.8541 65.4399C16.9487 63.8507 16.8115 62.2188 17.0244 61.7586C17.209 61.3554 17.687 61.047 18.094 61.2178C19.2866 61.7112 19.0311 66.5832 19.0311 67.921C18.6998 78.2721 16.8351 82.7599 18.1177 88.4952C18.5625 90.4829 19.4428 92.4611 21.3217 93.5048C22.1499 93.9649 23.1343 94.1357 24.0524 93.908C26.9914 93.187 27.4505 89.5247 27.4221 86.6166C27.1665 61.0755 26.8258 61.7539 28.2409 59.9939C28.9318 59.1353 30.186 58.8743 31.0805 59.51C31.9087 60.0983 31.8424 60.9569 31.762 61.7539C30.6261 73.4428 30.0582 75.4637 31.6105 76.7778C32.2636 77.3328 33.1676 77.5226 34.0005 77.3281C36.3716 76.7731 37.8718 74.5672 38.4161 72.2758C39.0172 69.7663 38.7521 68.2151 37.8577 54.9417C37.5926 51.0469 40.9102 51.73 40.6121 54.6807C40.489 55.8999 40.082 57.3041 41.1185 58.1485C41.8615 58.7557 42.9547 58.6039 43.6646 57.9588C44.9188 56.8202 44.8951 55.0982 44.7721 53.528C44.7153 52.8069 44.6443 52.0906 44.5591 51.3742C44.19 48.2243 45.127 45.1076 47.0864 42.6312Z" fill="url(#paint0_linear_29_152)"/>
<path d="M42.3205 68.2099C42.4199 68.7033 42.6471 69.2678 43.1346 69.3627C43.5605 69.4481 43.9628 69.1208 44.1994 68.7555C44.6396 68.0866 44.7579 67.2517 44.7579 66.4499C44.7579 65.7526 44.6443 64.9936 44.1426 64.5097C42.0744 62.5315 42.1407 67.3181 42.3205 68.2099Z" fill="url(#paint1_linear_29_152)"/>
<path d="M6.6741 72.4557C6.53212 73.5895 6.428 74.7755 6.98645 75.8239C7.20416 76.2319 7.53071 76.5877 7.93772 76.8059C9.21081 77.4748 10.4082 76.5829 11.0897 75.5535C11.8706 74.3628 12.2113 72.8922 12.0362 71.4785C11.9558 70.8476 11.1796 68.1198 10.465 65.6957C10.1289 64.5524 8.50564 64.5904 8.22168 65.7479C7.54018 68.5041 6.75929 71.7584 6.6741 72.4557Z" fill="url(#paint2_linear_29_152)"/>
<path d="M10.6684 61.7915C10.6684 62.4889 10.1052 63.0581 9.40953 63.0581C8.71382 63.0581 8.15063 62.4889 8.15063 61.7915C8.15063 61.0942 8.71382 60.5249 9.40953 60.5249C10.1052 60.5249 10.6684 61.0942 10.6684 61.7915Z" fill="url(#paint3_linear_29_152)"/>
<path d="M15.3348 72.2044C15.3348 72.6077 15.0082 72.935 14.6107 72.935C14.2084 72.935 13.8866 72.6077 13.8866 72.2044C13.8866 71.8012 14.2132 71.4739 14.6107 71.4739C15.0082 71.4739 15.3348 71.8012 15.3348 72.2044Z" fill="url(#paint4_linear_29_152)"/>
<path d="M44.3319 59.7327C44.3319 60.0458 44.0811 60.2973 43.7688 60.2973C43.4564 60.2973 43.2056 60.0458 43.2056 59.7327C43.2056 59.4196 43.4564 59.1682 43.7688 59.1682C44.0811 59.1682 44.3319 59.4196 44.3319 59.7327Z" fill="url(#paint5_linear_29_152)"/>
<defs>
<linearGradient id="paint0_linear_29_152" x1="24.8287" y1="111.295" x2="26.4462" y2="36.2598" gradientUnits="userSpaceOnUse">
<stop offset="0.2626" stop-color="#780000"/>
<stop offset="1" stop-color="#EC0000"/>
</linearGradient>
<linearGradient id="paint1_linear_29_152" x1="42.5338" y1="111.677" x2="44.1514" y2="36.6412" gradientUnits="userSpaceOnUse">
<stop offset="0.2626" stop-color="#780000"/>
<stop offset="1" stop-color="#EC0000"/>
</linearGradient>
<linearGradient id="paint2_linear_29_152" x1="8.50493" y1="110.943" x2="10.1225" y2="35.9075" gradientUnits="userSpaceOnUse">
<stop offset="0.2626" stop-color="#780000"/>
<stop offset="1" stop-color="#EC0000"/>
</linearGradient>
<linearGradient id="paint3_linear_29_152" x1="8.35494" y1="110.94" x2="9.97245" y2="35.9045" gradientUnits="userSpaceOnUse">
<stop offset="0.2626" stop-color="#780000"/>
<stop offset="1" stop-color="#EC0000"/>
</linearGradient>
<linearGradient id="paint4_linear_29_152" x1="13.7761" y1="111.057" x2="15.3937" y2="36.0212" gradientUnits="userSpaceOnUse">
<stop offset="0.2626" stop-color="#780000"/>
<stop offset="1" stop-color="#EC0000"/>
</linearGradient>
<linearGradient id="paint5_linear_29_152" x1="42.6556" y1="111.679" x2="44.2731" y2="36.6439" gradientUnits="userSpaceOnUse">
<stop offset="0.2626" stop-color="#780000"/>
<stop offset="1" stop-color="#EC0000"/>
</linearGradient>
</defs>
</svg>
