<svg width="196" height="50" viewBox="0 55 196 50" fill="none" xmlns="http://www.w3.org/2000/svg">
<g clip-path="url(#clip0_343_5)">
<path d="M140.193 73.219C141.02 76.0255 140.501 80.1735 140.582 82.1758C140.651 83.8461 140.398 85.1647 140.093 86.6722C139.71 88.5638 139.889 89.9345 142.181 89.788C144.117 89.6643 144.522 88.5899 143.997 86.8675C143.42 84.9791 143.163 82.9442 143.031 80.9744C142.907 79.1381 143.455 76.1818 144.58 74.6646C145.774 73.053 148.215 72.6557 149.136 70.7771C151.017 66.9287 148.264 64.0538 152.855 61.4491C157.109 59.0333 156.406 61.3742 155.443 64.7277C154.953 66.4371 155.268 69.8557 157.962 68.4101C160.533 67.0329 158.597 64.1384 158.166 62.4259C157.42 59.45 159.476 58.1509 160.433 55.6993C160.939 54.4035 160.997 53.4169 160.997 50.3304C156.367 50.3271 54.1585 50.3271 39.0293 50.3304C38.958 50.3304 39.0423 54.1593 39.065 56.7802C39.0844 59.004 39.1039 62.3021 39.5967 65.6622C40.3295 70.6632 39.2498 75.319 39.3406 80.3688C39.36 81.4465 39.4573 85.6759 41.6978 84.4061C43.0564 83.6377 42.5441 78.6888 42.4793 77.3279C42.3334 74.1697 40.9942 69.7645 42.6155 66.7985C43.8379 64.5617 47.1095 64.5357 48.1503 62.1459C48.9415 60.3356 50.1314 56.0411 52.6508 56.1323C55.8414 56.2463 55.141 60.4561 55.1442 62.4649C55.1475 65.7078 55.3355 69.4422 57.8192 71.8906C58.9995 73.0562 60.598 73.1148 61.4184 74.4432C62.6116 76.3869 62.9164 82.4754 62.9228 84.8001C62.9261 86.9587 62.2387 88.7527 62.4559 90.9373C62.6894 93.3076 63.6816 94.2876 65.5784 92.155C67.2158 90.3122 65.5525 86.8903 65.2477 84.748C64.8197 81.7526 64.2717 77.5786 67.8157 76.2925C69.6217 75.6381 69.3656 76.9176 70.5912 77.4451C75.7143 79.6558 75.2506 70.9334 76.4438 68.6478C77.9516 65.7533 80.1434 68.1431 81.8327 68.7813C83.7231 69.4976 85.7334 66.3622 86.5473 69.6669C87.0693 71.7897 85.4254 73.9223 85.7399 76.0646C85.9279 77.3507 86.2554 78.8093 87.6367 78.9428C88.6484 79.0405 90.3312 77.9107 90.5614 76.9111C91.0672 74.7395 89.9551 72.1609 89.5562 70.0413C89.0796 67.505 88.2884 64.5715 89.3098 62.1231C90.7754 58.61 94.1281 56.1649 97.8536 56.3472C99.6629 56.4351 101.751 57.4639 103.239 58.4244C105.353 59.7919 105.113 61.8463 106.774 63.357C110.13 66.4175 111.786 61.1431 114.821 61.5728C116.079 61.7519 116.66 63.1161 118.103 63.0608C119.458 63.0087 120.145 61.5924 121.387 61.371C126.637 60.4333 125.878 69.0548 125.599 71.7734C125.45 73.245 125.362 74.8046 126.857 75.42C128.219 75.9767 129.925 75 130.135 73.4697C130.437 71.3078 128.154 67.5245 129.681 65.6101C131.604 63.1975 134.004 67.2673 134.866 68.6478C135.881 70.2757 136.234 70.0087 137.904 70.5036C139.104 70.852 139.801 71.8841 140.193 73.219Z" fill="url(#paint0_linear_343_5)"/>
</g>
<path d="M44.0515 43.2107C47.9938 38.2296 50.1756 31.7827 49.6502 24.8091C48.68 11.9247 38.2729 1.53083 25.4663 0.643722C10.2081 -0.414167 0.00564575 -2.04882 0.00564575 13.0795C0.00564575 19.3794 -0.288928 38.9365 3.37889 43.4621C4.86022 45.2885 5.16784 47.817 4.10299 49.9186C3.89002 50.3408 3.67705 50.7677 3.49721 51.2421C1.04095 57.6986 8.19202 62.7935 9.42252 57.5705C9.88159 55.6255 8.98711 53.9509 9.97151 53.3627C11.415 53.2203 10.8754 56.2564 10.5489 62.0392C10.0804 64.34 9.73014 65.8154 10.2649 67.1105C10.9322 68.7329 13.6062 69.5963 13.8192 66.0194C13.9138 64.4302 13.7766 62.7983 13.9895 62.3381C14.1741 61.9349 14.6521 61.6265 15.0591 61.7973C16.2518 62.2907 15.9962 67.1627 15.9962 68.5004C15.6649 78.8516 13.8002 83.3394 15.0828 89.0747C15.5277 91.0624 16.4079 93.0406 18.2868 94.0843C19.115 94.5444 20.0994 94.7152 21.0176 94.4875C23.9566 93.7664 24.4156 90.1041 24.3872 87.1961C24.1317 61.655 23.7909 62.3334 25.206 60.5734C25.897 59.7147 27.1511 59.4538 28.0456 60.0895C28.8738 60.6777 28.8075 61.5364 28.7271 62.3334C27.5912 74.0223 27.0233 76.0432 28.5756 77.3573C29.2288 77.9123 30.1327 78.1021 30.9656 77.9076C33.3367 77.3525 34.837 75.1466 35.3812 72.8553C35.9823 70.3458 35.7172 68.7945 34.8228 55.5211C34.5577 51.6264 37.8753 52.3095 37.5772 55.2602C37.4541 56.4794 37.0471 57.8836 38.0836 58.728C38.8266 59.3352 39.9199 59.1834 40.6298 58.5382C41.8839 57.3997 41.8603 55.6777 41.7372 54.1074C41.6804 53.3864 41.6094 52.67 41.5242 51.9537C41.1551 48.8038 42.0922 45.687 44.0515 43.2107Z" fill="url(#paint1_linear_343_5)"/>
<path d="M39.2856 68.7895C39.385 69.2829 39.6122 69.8474 40.0997 69.9423C40.5256 70.0277 40.9279 69.7003 41.1645 69.3351C41.6046 68.6662 41.723 67.8312 41.723 67.0295C41.723 66.3322 41.6094 65.5732 41.1077 65.0893C39.0395 63.1111 39.1058 67.8977 39.2856 68.7895Z" fill="url(#paint2_linear_343_5)"/>
<path d="M3.63919 73.0352C3.49721 74.169 3.39309 75.355 3.95154 76.4034C4.16925 76.8114 4.4958 77.1671 4.90281 77.3854C6.1759 78.0543 7.37327 77.1624 8.05477 76.133C8.83566 74.9423 9.17641 73.4716 9.00131 72.058C8.92085 71.427 8.14469 68.6993 7.43006 66.2751C7.09404 65.1319 5.47073 65.1698 5.18677 66.3273C4.50527 69.0835 3.72437 72.3379 3.63919 73.0352Z" fill="url(#paint3_linear_343_5)"/>
<path d="M7.6335 62.3711C7.6335 63.0684 7.07032 63.6377 6.37461 63.6377C5.67891 63.6377 5.11572 63.0684 5.11572 62.3711C5.11572 61.6737 5.67891 61.1044 6.37461 61.1044C7.07032 61.1044 7.6335 61.6737 7.6335 62.3711Z" fill="url(#paint4_linear_343_5)"/>
<path d="M12.3 72.7839C12.3 73.1871 11.9734 73.5145 11.5759 73.5145C11.1736 73.5145 10.8518 73.1871 10.8518 72.7839C10.8518 72.3807 11.1784 72.0533 11.5759 72.0533C11.9734 72.0533 12.3 72.3807 12.3 72.7839Z" fill="url(#paint5_linear_343_5)"/>
<path d="M41.297 60.3121C41.297 60.6252 41.0462 60.8767 40.7338 60.8767C40.4215 60.8767 40.1707 60.6252 40.1707 60.3121C40.1707 59.999 40.4215 59.7476 40.7338 59.7476C41.0462 59.7476 41.297 59.999 41.297 60.3121Z" fill="url(#paint6_linear_343_5)"/>
<path d="M135.42 56.7104C132.336 52.8109 130.629 47.7639 131.04 42.3046C131.799 32.2179 139.941 24.0809 149.961 23.3865C161.899 22.5583 195.979 30.4611 195.979 42.3045C195.979 47.2364 194.253 51.7598 191.384 55.3028C190.225 56.7326 189.984 58.7121 190.817 60.3573C190.984 60.6878 191.15 61.0221 191.291 61.3934C193.213 66.4479 187.618 70.4366 186.655 66.3477C186.296 64.825 186.996 63.514 186.226 63.0535C185.096 62.9421 185.518 65.3189 185.774 69.8461C186.141 71.6473 186.415 72.8023 185.996 73.8161C185.474 75.0863 183.382 75.7622 183.215 72.962C183.141 71.7178 183.249 70.4403 183.082 70.08C182.938 69.7644 182.564 69.523 182.245 69.6567C181.312 70.0429 181.512 73.857 181.512 74.9043C181.771 83.0078 183.23 86.5211 182.227 91.0111C181.879 92.5671 181.19 94.1158 179.72 94.9328C179.072 95.2931 178.302 95.4268 177.583 95.2485C175.284 94.684 174.925 91.8169 174.947 89.5404C175.147 69.5453 175.413 70.0763 174.306 68.6985C173.766 68.0263 172.784 67.822 172.084 68.3197C171.436 68.7802 171.488 69.4524 171.551 70.0763C172.44 79.2271 172.884 80.8092 171.67 81.838C171.159 82.2725 170.451 82.421 169.8 82.2688C167.945 81.8342 166.771 80.1073 166.345 78.3136C165.875 76.3489 166.082 75.1345 166.782 64.7433C166.989 61.6943 164.394 62.229 164.627 64.539C164.723 65.4935 165.042 66.5928 164.231 67.2538C163.649 67.7292 162.794 67.6104 162.239 67.1053C161.257 66.214 161.276 64.8658 161.372 63.6366C161.417 63.0721 133.711 55.8636 133.778 55.3029C134.067 52.8369 136.953 58.649 135.42 56.7104Z" fill="url(#paint7_linear_343_5)"/>
<path d="M149.759 91.5369C149.858 92.0303 150.086 92.5948 150.573 92.6897C150.999 92.7751 151.401 92.4478 151.638 92.0825C152.078 91.4136 152.196 90.5787 152.196 89.777C152.196 89.0796 152.083 88.3206 151.581 87.8367C149.513 85.8585 149.579 90.6451 149.759 91.5369Z" fill="url(#paint8_linear_343_5)"/>
<path d="M114.113 95.7826C113.971 96.9164 113.866 98.1024 114.425 99.1508C114.643 99.5588 114.969 99.9146 115.376 100.133C116.649 100.802 117.847 99.9098 118.528 98.8804C119.309 97.6897 119.65 96.2191 119.475 94.8054C119.394 94.1745 118.618 91.4467 117.903 89.0226C117.567 87.8793 115.944 87.9173 115.66 89.0748C114.979 91.831 114.198 95.0853 114.113 95.7826Z" fill="url(#paint9_linear_343_5)"/>
<path d="M118.107 85.1184C118.107 85.8158 117.544 86.385 116.848 86.385C116.152 86.385 115.589 85.8158 115.589 85.1184C115.589 84.4211 116.152 83.8518 116.848 83.8518C117.544 83.8518 118.107 84.4211 118.107 85.1184Z" fill="url(#paint10_linear_343_5)"/>
<path d="M122.773 95.5313C122.773 95.9346 122.447 96.2619 122.049 96.2619C121.647 96.2619 121.325 95.9346 121.325 95.5313C121.325 95.1281 121.652 94.8008 122.049 94.8008C122.447 94.8008 122.773 95.1281 122.773 95.5313Z" fill="url(#paint11_linear_343_5)"/>
<path d="M151.77 83.0596C151.77 83.3727 151.52 83.6242 151.207 83.6242C150.895 83.6242 150.644 83.3727 150.644 83.0596C150.644 82.7465 150.895 82.4951 151.207 82.4951C151.52 82.4951 151.77 82.7465 151.77 83.0596Z" fill="url(#paint12_linear_343_5)"/>
<defs>
<linearGradient id="paint0_linear_343_5" x1="100.951" y1="92.7077" x2="99.839" y2="54.2223" gradientUnits="userSpaceOnUse">
<stop stop-color="#780000"/>
<stop offset="1" stop-color="#CE0101"/>
</linearGradient>
<linearGradient id="paint1_linear_343_5" x1="21.7938" y1="111.875" x2="23.4114" y2="36.8393" gradientUnits="userSpaceOnUse">
<stop offset="0.2626" stop-color="#780000"/>
<stop offset="1" stop-color="#EC0000"/>
</linearGradient>
<linearGradient id="paint2_linear_343_5" x1="39.4989" y1="112.256" x2="41.1164" y2="37.2208" gradientUnits="userSpaceOnUse">
<stop offset="0.2626" stop-color="#780000"/>
<stop offset="1" stop-color="#EC0000"/>
</linearGradient>
<linearGradient id="paint3_linear_343_5" x1="5.47002" y1="111.523" x2="7.08758" y2="36.4869" gradientUnits="userSpaceOnUse">
<stop offset="0.2626" stop-color="#780000"/>
<stop offset="1" stop-color="#EC0000"/>
</linearGradient>
<linearGradient id="paint4_linear_343_5" x1="5.32003" y1="111.52" x2="6.93754" y2="36.484" gradientUnits="userSpaceOnUse">
<stop offset="0.2626" stop-color="#780000"/>
<stop offset="1" stop-color="#EC0000"/>
</linearGradient>
<linearGradient id="paint5_linear_343_5" x1="10.7413" y1="111.636" x2="12.3589" y2="36.6007" gradientUnits="userSpaceOnUse">
<stop offset="0.2626" stop-color="#780000"/>
<stop offset="1" stop-color="#EC0000"/>
</linearGradient>
<linearGradient id="paint6_linear_343_5" x1="39.6207" y1="112.259" x2="41.2382" y2="37.2233" gradientUnits="userSpaceOnUse">
<stop offset="0.2626" stop-color="#780000"/>
<stop offset="1" stop-color="#EC0000"/>
</linearGradient>
<linearGradient id="paint7_linear_343_5" x1="176.976" y1="108.86" x2="175.709" y2="50.1181" gradientUnits="userSpaceOnUse">
<stop offset="0.2626" stop-color="#780000"/>
<stop offset="1" stop-color="#EC0000"/>
</linearGradient>
<linearGradient id="paint8_linear_343_5" x1="149.972" y1="135.004" x2="151.59" y2="59.9682" gradientUnits="userSpaceOnUse">
<stop offset="0.2626" stop-color="#780000"/>
<stop offset="1" stop-color="#EC0000"/>
</linearGradient>
<linearGradient id="paint9_linear_343_5" x1="115.943" y1="134.27" x2="117.561" y2="59.2344" gradientUnits="userSpaceOnUse">
<stop offset="0.2626" stop-color="#780000"/>
<stop offset="1" stop-color="#EC0000"/>
</linearGradient>
<linearGradient id="paint10_linear_343_5" x1="115.793" y1="134.267" x2="117.411" y2="59.2314" gradientUnits="userSpaceOnUse">
<stop offset="0.2626" stop-color="#780000"/>
<stop offset="1" stop-color="#EC0000"/>
</linearGradient>
<linearGradient id="paint11_linear_343_5" x1="121.215" y1="134.384" x2="122.832" y2="59.3481" gradientUnits="userSpaceOnUse">
<stop offset="0.2626" stop-color="#780000"/>
<stop offset="1" stop-color="#EC0000"/>
</linearGradient>
<linearGradient id="paint12_linear_343_5" x1="150.094" y1="135.006" x2="151.712" y2="59.9708" gradientUnits="userSpaceOnUse">
<stop offset="0.2626" stop-color="#780000"/>
<stop offset="1" stop-color="#EC0000"/>
</linearGradient>
<clipPath id="clip0_343_5">
<rect width="122" height="43" fill="white" transform="translate(39 50.327)"/>
</clipPath>
</defs>
</svg>
