<svg width="16" height="16" viewBox="0 0 16 16" fill="none" xmlns="http://www.w3.org/2000/svg">
<path fill-rule="evenodd" clip-rule="evenodd" d="M0.365112 7.87605C0.365112 7.23684 0.883295 6.71866 1.5225 6.71866L14.6396 6.71866C15.2788 6.71866 15.797 7.23684 15.797 7.87605C15.797 8.51526 15.2788 9.03345 14.6396 9.03345L1.5225 9.03345C0.883295 9.03345 0.365112 8.51526 0.365112 7.87605Z" fill="white"/>
<path fill-rule="evenodd" clip-rule="evenodd" d="M8.10623 14.7937C7.64152 14.3548 7.62059 13.6222 8.05949 13.1575L13.0477 7.87591L8.05949 2.5943C7.62059 2.12958 7.64152 1.39706 8.10623 0.958163C8.57095 0.519266 9.30347 0.540195 9.74236 1.00491L15.4811 7.08122C15.9024 7.52727 15.9024 8.22455 15.4811 8.67061L9.74237 14.7469C9.30347 15.2116 8.57095 15.2326 8.10623 14.7937Z" fill="white"/>
</svg>
