<svg width="17" height="16" viewBox="0 0 17 16" fill="none" xmlns="http://www.w3.org/2000/svg">
<path d="M2.25647 0.0559692L15.7797 13.58C15.9908 13.7909 16.1094 14.0771 16.1094 14.3755C16.1095 14.6738 15.991 14.96 15.7801 15.1711C15.5691 15.3821 15.283 15.5007 14.9846 15.5008C14.6862 15.5009 14.4 15.3824 14.189 15.1715L10.742 11.7237L8.08996 14.375L4.99997 11.285V13.25C4.99997 13.4489 4.92095 13.6396 4.7803 13.7803C4.63964 13.9209 4.44888 14 4.24997 14C4.05105 14 3.86029 13.9209 3.71964 13.7803C3.57898 13.6396 3.49997 13.4489 3.49997 13.25V10.25C3.49975 10.0588 3.42656 9.87494 3.29533 9.73594C3.1641 9.59694 2.98475 9.51329 2.79392 9.50209C2.60309 9.49089 2.41518 9.55297 2.26859 9.67567C2.122 9.79836 2.02779 9.9724 2.00522 10.1622L1.99997 10.25V11C1.99997 11.1989 1.92095 11.3896 1.7803 11.5303C1.63964 11.6709 1.44888 11.75 1.24997 11.75C1.05105 11.75 0.860287 11.6709 0.719635 11.5303C0.578983 11.3896 0.499965 11.1989 0.499965 11V4.41047C0.468809 2.84514 1.05258 1.32998 2.12597 0.190219L2.25647 0.0559692ZM2.43722 2.35847L2.39897 2.44097C2.17372 2.93856 2.04105 3.47305 2.00747 4.01822L1.99997 4.24997L1.99922 4.33997C2.00824 5.45304 2.43057 6.52305 3.18422 7.34222L3.31697 7.48097L8.08922 12.2532L10.211 10.1322L2.43722 2.35847Z" fill="#CD3939"/>
</svg>
