<svg width="24" height="22" viewBox="0 0 24 22" fill="none" xmlns="http://www.w3.org/2000/svg">
<path d="M15.7124 8.02102C16.08 8.02111 16.4348 8.15621 16.7094 8.40065C16.984 8.6451 17.1592 8.98187 17.2019 9.34702L17.2124 9.52102V16.073C17.2222 17.4408 16.6954 18.7579 15.745 19.7416C14.7946 20.7253 13.4964 21.2972 12.1291 21.3345C10.7617 21.3718 9.4343 20.8716 8.43167 19.9412C7.42905 19.0107 6.83118 17.7243 6.76639 16.358L6.75889 16.073V9.52102C6.75898 9.15339 6.89408 8.79859 7.13852 8.52401C7.38297 8.24942 7.71974 8.07416 8.08489 8.03152L8.25889 8.02102H15.7124ZM5.66239 8.02102C5.44414 8.39762 5.31102 8.81746 5.27239 9.25102L5.25889 9.52102V16.073L5.26639 16.388C5.31139 17.3525 5.55889 18.263 5.96839 19.0805C5.33677 19.3458 4.65074 19.4557 3.96785 19.4011C3.28497 19.3464 2.62514 19.1288 2.04374 18.7665C1.46233 18.4042 0.976299 17.9077 0.626414 17.3187C0.276529 16.7297 0.0729962 16.0654 0.0328908 15.3815L0.0253906 15.1295V9.52102C0.0254391 9.15362 0.160325 8.79901 0.404464 8.52446C0.648602 8.24991 0.985014 8.07451 1.34989 8.03152L1.52539 8.02102H5.66089H5.66239ZM18.3104 8.02102H22.4864C22.854 8.02111 23.2088 8.15621 23.4834 8.40065C23.758 8.6451 23.9332 8.98187 23.9759 9.34702L23.9864 9.52102V15.131C23.9864 15.8404 23.8103 16.5387 23.4739 17.1632C23.1375 17.7877 22.6512 18.3188 22.0588 18.709C21.4664 19.0992 20.7864 19.3362 20.0797 19.3987C19.3731 19.4611 18.6621 19.3472 18.0104 19.067C18.4135 18.2576 18.6482 17.3748 18.7004 16.472L18.7124 16.073V9.52102L18.7034 9.29752C18.6706 8.84777 18.5363 8.41131 18.3104 8.02102ZM11.9834 0.483521C12.8695 0.483521 13.7194 0.835544 14.346 1.46215C14.9726 2.08876 15.3246 2.93862 15.3246 3.82477C15.3246 4.71092 14.9726 5.56078 14.346 6.18739C13.7194 6.814 12.8695 7.16602 11.9834 7.16602C11.0972 7.16602 10.2474 6.814 9.62077 6.18739C8.99416 5.56078 8.64214 4.71092 8.64214 3.82477C8.64214 2.93862 8.99416 2.08876 9.62077 1.46215C10.2474 0.835544 11.0972 0.483521 11.9834 0.483521ZM19.4639 1.42552C20.2251 1.42552 20.9552 1.72792 21.4935 2.2662C22.0317 2.80447 22.3341 3.53453 22.3341 4.29577C22.3341 5.05701 22.0317 5.78707 21.4935 6.32534C20.9552 6.86362 20.2251 7.16602 19.4639 7.16602C18.7027 7.16602 17.9726 6.86362 17.4343 6.32534C16.896 5.78707 16.5936 5.05701 16.5936 4.29577C16.5936 3.53453 16.896 2.80447 17.4343 2.2662C17.9726 1.72792 18.7027 1.42552 19.4639 1.42552ZM4.52539 1.42552C5.28663 1.42552 6.01669 1.72792 6.55496 2.2662C7.09324 2.80447 7.39564 3.53453 7.39564 4.29577C7.39564 5.05701 7.09324 5.78707 6.55496 6.32534C6.01669 6.86362 5.28663 7.16602 4.52539 7.16602C3.76415 7.16602 3.03409 6.86362 2.49582 6.32534C1.95754 5.78707 1.65514 5.05701 1.65514 4.29577C1.65514 3.53453 1.95754 2.80447 2.49582 2.2662C3.03409 1.72792 3.76415 1.42552 4.52539 1.42552Z" fill="#FD5252"/>
</svg>
