<svg width="17" height="19" viewBox="0 0 17 19" fill="none" xmlns="http://www.w3.org/2000/svg">
<path d="M7.76758 0.710938H9.23242C9.36263 0.710938 9.42773 0.776042 9.42773 0.90625V18.0938C9.42773 18.224 9.36263 18.2891 9.23242 18.2891H7.76758C7.63737 18.2891 7.57227 18.224 7.57227 18.0938V0.90625C7.57227 0.776042 7.63737 0.710938 7.76758 0.710938Z" fill="#CD3939"/>
<path d="M0.296875 8.57227H16.7031C16.8333 8.57227 16.8984 8.63737 16.8984 8.76758V10.2324C16.8984 10.3626 16.8333 10.4277 16.7031 10.4277H0.296875C0.166667 10.4277 0.101562 10.3626 0.101562 10.2324V8.76758C0.101562 8.63737 0.166667 8.57227 0.296875 8.57227Z" fill="#CD3939"/>
</svg>
