<svg width="24" height="24" viewBox="0 0 24 24" fill="none" xmlns="http://www.w3.org/2000/svg">
<path d="M23.25 12C23.25 5.787 18.213 0.75 12 0.75C5.94788 0.75 1.01362 5.52975 0.761625 11.52C0.758625 11.5935 0.757875 11.6681 0.756375 11.742C0.7545 11.8282 0.75 11.9137 0.75 12V12.0379C0.75 18.2303 5.787 23.25 12 23.25C18.213 23.25 23.25 18.2303 23.25 12.0379L23.2493 12.0195L23.25 12ZM14.2463 22.2566C14.0494 22.1497 13.8604 21.9746 13.7835 21.7361C13.6444 21.3041 13.752 20.9689 13.9117 20.5789C14.0392 20.2665 13.8679 19.9058 13.9526 19.5788C14.118 18.9424 14.3175 18.2528 14.256 17.5691C14.2177 17.1495 14.1248 17.1304 13.8143 16.8881C13.4869 16.6313 13.4869 16.2679 13.2679 15.9431C13.0695 15.648 13.6035 14.5267 13.4546 14.4585C13.2878 14.3816 12.9083 14.4821 12.7882 14.3228C12.6593 14.151 12.5692 13.9481 12.3919 13.815C12.2775 13.7291 11.7716 13.4419 11.6366 13.4621C10.9567 13.5637 10.2203 12.9008 9.78638 12.4684C9.4875 12.1718 9.363 11.8391 9.144 11.496C8.95875 11.2054 8.67825 11.1803 8.54062 10.8199C8.39625 10.4434 8.48213 9.96113 8.43825 9.56512C8.39063 9.1395 8.17913 9.00375 7.91475 8.67825C7.34925 7.97963 7.14112 6.93713 6.06825 6.93713C5.49187 6.93713 5.53275 8.19263 5.0685 8.02425C4.5435 7.83413 3.73125 8.73338 3.74288 8.61225C3.80437 7.9845 4.449 7.67925 4.512 7.49213C4.71787 6.87787 3.59212 7.02488 3.7365 6.51263C3.807 6.26063 4.52325 6.07725 4.37512 5.92688C4.3305 5.88112 3.78263 5.49675 3.80963 5.47762C3.91125 5.40637 4.353 5.63213 4.257 5.33888C4.22475 5.24137 4.17263 5.15175 4.12313 5.06137C4.35081 4.80282 4.5911 4.55564 4.84312 4.32075C5.22337 4.28963 5.61788 4.31325 5.76075 4.341C6.66675 4.5195 6.98175 4.97813 7.88775 4.63875C8.3235 4.476 9.92963 4.75837 10.1599 5.21513C10.2851 5.46487 10.7516 5.064 10.9335 5.037C11.1285 5.00775 11.5691 5.30813 11.7034 5.124C12.057 4.63987 11.4769 4.43888 12.162 4.81163C12.6214 5.06175 13.5191 3.96187 13.2349 5.2545C13.0297 6.18638 12.276 6.207 11.7232 6.81413C11.1791 7.41187 12.7999 7.57463 12.8415 8.11462C12.9615 9.66937 13.7906 7.98787 13.5686 7.43512C13.1392 6.3645 14.0573 6.6585 14.427 7.33875C14.6321 7.71637 14.7881 7.39838 15.0394 7.26675C15.243 7.16062 15.2974 7.7355 15.3412 7.83563C15.4856 8.16825 15.96 8.26762 15.8798 8.69587C15.7905 9.168 15.4549 9.02625 15.1268 9.10612C14.7604 9.195 15.186 9.50325 15.1327 9.61575C15.075 9.73875 14.6333 9.78975 14.5155 9.8595C14.169 10.0635 14.3809 10.4614 14.1097 10.6751C13.9237 10.8221 13.7362 10.7265 13.7003 11.0017C13.6579 11.3261 13.0601 11.4304 13.1378 11.7405C13.1591 11.8256 13.3313 12.4616 13.2229 12.4954C13.173 12.5115 12.7789 11.9423 12.6713 11.8853C12.4583 11.7724 11.49 11.8646 11.3655 12.5055C11.2849 12.9199 11.9516 13.5742 12.1215 13.0035C12.3319 12.3011 12.432 13.4126 12.3814 13.4561C12.4819 13.5439 13.0699 13.3118 12.8955 13.7186C12.8216 13.8907 12.9679 14.3396 13.2289 14.2013C13.338 14.1435 13.6193 14.3175 13.6684 14.2241C13.739 14.1166 13.8344 14.0276 13.9466 13.9646C14.2095 13.8109 14.6029 13.9552 14.8909 13.9721C15.0667 13.9822 16.5082 14.7686 16.5161 14.9265C16.5476 15.5171 17.6374 15.4402 17.8046 15.6514C18.2542 16.2236 18.1159 15.933 17.7878 16.6661C17.6224 17.0351 17.7664 17.4877 17.3659 17.7551C17.1731 17.8834 16.938 17.8193 16.7666 18.0007C16.6121 18.1646 16.6729 18.3604 16.5791 18.5497C16.4662 18.7751 14.9494 20.1383 14.8492 20.4679C14.7994 20.6333 14.3468 20.7773 14.7285 20.9359C14.9505 21.0011 14.2369 21.6758 14.58 21.9551C14.6636 22.023 14.7184 22.0804 14.7596 22.1318C14.5883 22.1775 14.4184 22.2191 14.2463 22.2566ZM13.3478 1.58887C13.3331 1.64325 13.3553 1.70737 13.4494 1.77C13.6616 1.91062 13.3886 2.223 13.0958 2.02162C12.8036 1.82025 12.1466 2.112 12.192 2.26312C12.2366 2.41425 12.4395 2.47425 12.753 2.35387C13.0658 2.23312 13.1947 2.37187 13.2472 2.51512C13.2832 2.61225 13.2472 2.66625 13.2371 2.79713C13.2277 2.928 12.8636 2.83725 12.561 2.85787C12.2576 2.87812 11.9347 2.79712 11.9441 2.62575C11.9543 2.45475 11.6212 2.14237 11.4225 2.01187C11.2241 1.88137 11.5095 1.59938 11.7727 1.8105C12.0349 2.022 12.0454 1.77038 12.3484 1.69012C12.5205 1.64437 12.4515 1.57575 12.393 1.5105C12.7155 1.52175 13.0335 1.54875 13.3478 1.58887ZM14.6666 4.91475C14.8935 4.97625 15.2876 5.26312 15.2876 5.39888C15.2876 5.535 15.1087 5.70525 15.0296 5.68575C14.4585 5.54662 13.977 4.983 13.7119 4.67438C13.2491 4.13625 13.2784 4.5975 12.5452 4.36462C12.3577 4.30463 12.0604 3.723 12.2572 3.43613C12.4541 3.14925 12.6814 3.10387 12.8629 3.18C13.0444 3.255 13.5746 2.93813 13.6965 3.31575C13.8172 3.69338 14.1506 4.17525 14.454 4.30425C14.7577 4.4325 14.439 4.85325 14.6666 4.91475ZM14.8485 6.66712C14.9392 6.84825 14.3029 6.45563 14.1514 6.2745C14.0006 6.09375 13.7726 5.68538 13.9552 5.50425C14.1368 5.3235 14.544 5.88112 14.7581 6.003C15.1815 6.24487 14.7578 6.48637 14.8485 6.66712ZM11.6258 3.924C11.6696 3.86362 11.7626 4.01475 11.8455 4.16587C11.9284 4.317 11.814 4.53 11.6258 4.49775C11.4375 4.46625 11.5204 4.07175 11.6258 3.924ZM11.6258 2.4045C11.6258 2.4045 11.8031 2.83725 11.6258 2.76675C11.4484 2.69625 11.4398 2.51513 11.6258 2.4045ZM11.6617 3.77325C11.6111 3.65288 11.5995 3.15825 11.7225 3.00825C11.904 2.787 12.1973 3.21975 12 3.39075C11.8031 3.56212 11.712 3.89438 11.6617 3.77325ZM9.38288 4.30387C9.05325 4.28025 9.04612 3.99525 9.00037 3.84413C8.95463 3.693 8.68163 4.131 8.40563 3.84413C8.12963 3.55725 8.47012 3.18 8.40937 2.95312C8.34862 2.72662 9.06038 2.95312 9.16687 2.95312C9.27337 2.95312 9.561 3.42113 9.63638 3.41325C9.7125 3.40575 10.1213 3.78338 10.1213 3.63225C10.1213 3.4815 10.1835 3.22425 10.47 3.19425C10.9095 3.14887 10.5154 3.67762 10.5 3.8835C10.4854 4.08938 10.8341 4.4475 10.962 4.59862C11.091 4.74975 10.6369 4.85588 10.5608 4.76475C10.4854 4.674 10.2881 4.76475 10.1213 4.8855C9.95512 5.00625 9.50025 4.71938 9.28837 4.62863C9.07612 4.53825 9.7125 4.32713 9.38288 4.30387ZM10.5608 1.92113C10.8536 2.022 11.0201 2.11238 11.1641 1.92113C11.3033 1.73663 11.4094 2.3235 11.3085 2.48438C11.2072 2.646 11.0156 2.60588 10.9849 2.48438C10.9549 2.36437 10.2679 1.82025 10.5608 1.92113ZM10.9849 3.74325C10.8844 3.612 10.8742 3.46125 10.9849 3.35063C11.0962 3.24 11.0602 3.10912 11.2582 3.069C11.3558 3.04875 11.3689 3.1995 11.3689 3.3405C11.3689 3.4815 11.4904 3.66263 11.3689 3.8835C11.2477 4.10437 11.0861 3.87375 10.9849 3.74325ZM11.8117 1.50488C11.8073 1.53263 11.7889 1.54912 11.7428 1.54462C11.711 1.53925 11.6808 1.5271 11.6542 1.509C11.7071 1.50713 11.7589 1.50563 11.8117 1.50488ZM9.52087 1.93125C9.753 1.93125 9.723 2.088 9.915 2.20088C10.107 2.31337 10.0057 1.61887 10.137 1.88063C10.2682 2.142 10.6579 2.50463 10.4704 2.57475C10.3091 2.63588 9.63262 2.89687 9.57187 2.85188C9.51112 2.80687 9.4305 2.61563 9.2685 2.57475C9.1065 2.53463 8.93513 2.15212 8.82375 2.16225C8.78137 2.166 8.77763 2.09325 8.80538 1.9965C9.00014 1.9338 9.19673 1.8769 9.39487 1.82588C9.41663 1.88513 9.44963 1.93125 9.52087 1.93125ZM14.5905 13.1906C14.3486 13.4404 13.932 13.0166 13.6444 13.0316C13.3567 13.0466 13.2124 12.7448 12.9626 12.7751C12.7121 12.8048 13.0309 12.4575 13.3793 12.6394C13.7269 12.8205 14.7878 12.9862 14.5905 13.1906ZM19.4393 4.59037C19.3687 4.68038 19.2885 4.74338 19.2116 4.80975C18.9847 5.00625 18.5606 4.99125 18.4999 5.127C18.4391 5.26275 18.2876 5.68538 17.7574 5.68725C17.2271 5.68875 17.3786 6.48637 17.3333 6.714C17.2879 6.94162 17.1671 7.21088 17.0153 7.01437C16.8638 6.81825 16.803 6.89325 16.3342 6.3195C15.8655 5.74575 16.0455 5.42887 16.1974 5.26275C16.3489 5.097 16.4096 4.704 16.1974 4.76437C15.9851 4.82475 15.864 4.68862 15.9094 4.50075C15.9548 4.31288 16.182 4.17563 15.9094 3.975C15.6367 3.77475 15.7879 3.05813 15.576 2.40412C15.3637 1.74975 15.0758 2.21288 14.6063 2.238C14.1368 2.26312 14.0606 1.91062 14.2729 1.74937C16.2314 2.18248 18.0245 3.1685 19.4393 4.59037Z" fill="#FD5252"/>
</svg>
